<svg width="64" height="64" viewBox="0 0 64 64" fill="none" xmlns="http://www.w3.org/2000/svg">
<rect width="64" height="64" rx="32" fill="#06234F"/>
<path d="M48 32.8125V22.1315C48 21.2082 47.481 20.3723 46.6126 20.099C45.1045 19.6243 42.367 19 38.4 19C31.0734 19 29.1147 21.7259 19.0048 19.6884C17.4733 19.3797 16 20.5361 16 22.1219V38.3995C16 39.518 16.7562 40.5003 17.8317 40.7412C28.15 43.0521 30.4773 40.7075 36.8 40.3476M16 25.5C19.1221 25.5 21.9277 22.9082 22.2864 20.2255M42.4008 19.8125C42.4008 23.1269 45.2248 26.2621 48 26.2621M22.4008 40.9311C22.4008 37.3413 19.5354 34.4311 16.0008 34.4311M47.9999 37.6875L44.3999 41.3438M44.3999 41.3438L40.7999 45M44.3999 41.3438L40.7999 37.6875M44.3999 41.3438L47.9999 45M35.9997 30.375C35.9997 32.6186 34.2088 34.4375 31.9997 34.4375C29.7906 34.4375 27.9997 32.6186 27.9997 30.375C27.9997 28.1313 29.7906 26.3125 31.9997 26.3125C34.2088 26.3125 35.9997 28.1313 35.9997 30.375Z" stroke="white" stroke-width="1.5" stroke-linecap="round" stroke-linejoin="round"/>
</svg>
