<svg width="64" height="64" viewBox="0 0 64 64" fill="none" xmlns="http://www.w3.org/2000/svg">
<rect width="64" height="64" rx="32" fill="#06234F"/>
<path d="M28.7601 16.7867C29.174 16.8042 29.5237 16.4829 29.5412 16.0691C29.5587 15.6552 29.2374 15.3056 28.8236 15.288L28.7919 16.0374L28.7601 16.7867ZM21.7058 16.3286L21.7593 17.0767C21.7784 17.0753 21.7975 17.0732 21.8164 17.0704L21.7058 16.3286ZM16.0184 23.9449L15.2684 23.9449L16.0184 23.9449ZM16.0184 41.1884H16.7684L16.7683 41.1784L16.0184 41.1884ZM21.2693 47.7597L21.3129 47.011H21.3129L21.2693 47.7597ZM39.2329 47.7597L39.1907 47.0109C39.1834 47.0113 39.1762 47.0118 39.1689 47.0125L39.2329 47.7597ZM44.4373 42.8708L43.6923 42.7841V42.7841L44.4373 42.8708ZM45.5703 35.2245C45.5703 34.8103 45.2345 34.4745 44.8203 34.4745C44.4061 34.4745 44.0703 34.8103 44.0703 35.2245H44.8203H45.5703ZM23.9688 32.8747C23.5546 32.8747 23.2188 33.2104 23.2188 33.6247C23.2188 34.0389 23.5546 34.3747 23.9688 34.3747V33.6247V32.8747ZM30.3688 34.3747C30.783 34.3747 31.1188 34.0389 31.1188 33.6247C31.1188 33.2104 30.783 32.8747 30.3688 32.8747V33.6247V34.3747ZM23.9688 39.2734C23.5546 39.2734 23.2188 39.6092 23.2188 40.0234C23.2188 40.4376 23.5546 40.7734 23.9688 40.7734V40.0234V39.2734ZM36.7689 40.7734C37.1831 40.7734 37.5189 40.4376 37.5189 40.0234C37.5189 39.6092 37.1831 39.2734 36.7689 39.2734V40.0234V40.7734ZM43.3811 21.4453C43.674 21.1524 43.6741 20.6776 43.3812 20.3846C43.0883 20.0917 42.6135 20.0917 42.3205 20.3845L42.8508 20.9149L43.3811 21.4453ZM36.3374 26.3664C36.0445 26.6593 36.0444 27.1342 36.3373 27.4271C36.6302 27.72 37.105 27.7201 37.398 27.4272L36.8677 26.8968L36.3374 26.3664ZM37.398 20.3845C37.105 20.0917 36.6302 20.0917 36.3373 20.3846C36.0444 20.6776 36.0445 21.1524 36.3374 21.4453L36.8677 20.9149L37.398 20.3845ZM42.3205 27.4272C42.6135 27.7201 43.0883 27.72 43.3812 27.4271C43.6741 27.1342 43.674 26.6593 43.3811 26.3664L42.8508 26.8968L42.3205 27.4272ZM28.7919 16.0374L28.8236 15.288C26.7892 15.2019 24.9878 15.276 23.6945 15.3715C23.0474 15.4194 22.5262 15.4726 22.1651 15.5142C21.9845 15.535 21.8439 15.5528 21.7476 15.5657C21.6994 15.5721 21.6622 15.5772 21.6367 15.5808C21.6239 15.5826 21.614 15.584 21.6071 15.585C21.6036 15.5855 21.6009 15.5859 21.5989 15.5862C21.5979 15.5864 21.5971 15.5865 21.5965 15.5866C21.5962 15.5866 21.596 15.5867 21.5957 15.5867C21.5956 15.5867 21.5955 15.5867 21.5955 15.5867C21.5954 15.5868 21.5953 15.5868 21.7058 16.3286C21.8164 17.0704 21.8163 17.0704 21.8163 17.0704C21.8163 17.0704 21.8162 17.0704 21.8162 17.0704C21.8162 17.0704 21.8162 17.0704 21.8163 17.0704C21.8164 17.0704 21.8168 17.0703 21.8173 17.0702C21.8183 17.0701 21.8201 17.0698 21.8226 17.0695C21.8276 17.0687 21.8355 17.0676 21.8463 17.0661C21.868 17.063 21.9011 17.0584 21.9451 17.0526C22.0333 17.0409 22.1652 17.0241 22.3366 17.0044C22.6796 16.9649 23.1803 16.9136 23.805 16.8675C25.0553 16.7751 26.7969 16.7036 28.7601 16.7867L28.7919 16.0374ZM21.7058 16.3286L21.6524 15.5805C20.5855 15.6567 18.9723 15.9962 17.6218 17.2443C16.2527 18.5094 15.2684 20.6007 15.2684 23.9449L16.0184 23.9449L16.7684 23.9449C16.7684 20.9053 17.6526 19.2581 18.6398 18.3459C19.6454 17.4166 20.876 17.1398 21.7593 17.0767L21.7058 16.3286ZM16.0184 23.9449L15.2684 23.9449C15.2684 30.2643 15.227 38.0812 15.2684 41.1984L16.0184 41.1884L16.7683 41.1784C16.727 38.0741 16.7684 30.2846 16.7684 23.9449L16.0184 23.9449ZM16.0184 41.1884H15.2684C15.2684 42.2544 15.5898 43.9716 16.4685 45.476C17.3617 47.0052 18.8729 48.3713 21.2256 48.5085L21.2693 47.7597L21.3129 47.011C19.5917 46.9106 18.4774 45.9413 17.7637 44.7194C17.0355 43.4727 16.7684 42.023 16.7684 41.1884H16.0184ZM21.2693 47.7597L21.2256 48.5085C26.1956 48.7984 35.1546 48.8616 39.2969 48.507L39.2329 47.7597L39.1689 47.0125C35.1265 47.3585 26.2465 47.2988 21.3129 47.011L21.2693 47.7597ZM39.2329 47.7597L39.2751 48.5085C39.9273 48.4718 41.2453 48.2116 42.4813 47.4089C43.7462 46.5873 44.9219 45.195 45.1822 42.9575L44.4373 42.8708L43.6923 42.7841C43.491 44.5139 42.6122 45.5352 41.6643 46.1509C40.6874 46.7853 39.634 46.9859 39.1907 47.0109L39.2329 47.7597ZM44.4373 42.8708L45.1822 42.9575C45.6664 38.7963 45.5703 35.8947 45.5703 35.2245H44.8203H44.0703C44.0703 35.914 44.1646 38.7252 43.6923 42.7841L44.4373 42.8708ZM48 24.0265H47.25C47.25 28.0289 44.0015 31.275 39.9923 31.275V32.025V32.775C44.8282 32.775 48.75 28.8589 48.75 24.0265H48ZM39.9923 32.025V31.275C35.9831 31.275 32.7345 28.0289 32.7345 24.0265H31.9845H31.2345C31.2345 28.8589 35.1563 32.775 39.9923 32.775V32.025ZM31.9845 24.0265H32.7345C32.7345 20.0242 35.9831 16.7781 39.9923 16.7781V16.0281V15.2781C35.1563 15.2781 31.2345 19.1941 31.2345 24.0265H31.9845ZM39.9923 16.0281V16.7781C44.0015 16.7781 47.25 20.0242 47.25 24.0265H48H48.75C48.75 19.1941 44.8282 15.2781 39.9923 15.2781V16.0281ZM23.9688 33.6247V34.3747H30.3688V33.6247V32.8747H23.9688V33.6247ZM23.9688 40.0234V40.7734H36.7689V40.0234V39.2734H23.9688V40.0234ZM42.8508 20.9149L42.3205 20.3845L39.329 23.3755L39.8592 23.9059L40.3895 24.4363L43.3811 21.4453L42.8508 20.9149ZM39.8592 23.9059L39.329 23.3755L36.3374 26.3664L36.8677 26.8968L37.398 27.4272L40.3895 24.4363L39.8592 23.9059ZM39.8592 23.9059L40.3895 23.3755L37.398 20.3845L36.8677 20.9149L36.3374 21.4453L39.329 24.4363L39.8592 23.9059ZM39.8592 23.9059L39.329 24.4363L42.3205 27.4272L42.8508 26.8968L43.3811 26.3664L40.3895 23.3755L39.8592 23.9059Z" fill="white"/>
</svg>
