<svg width="64" height="64" viewBox="0 0 64 64" fill="none" xmlns="http://www.w3.org/2000/svg">
<rect width="64" height="64" rx="32" fill="#06234F"/>
<path d="M35.051 17.0899C35.4569 17.1722 35.8527 16.9099 35.935 16.5039C36.0174 16.098 35.755 15.7021 35.349 15.6198L35.2 16.3549L35.051 17.0899ZM48.415 28.6718C48.3326 28.2659 47.9367 28.0037 47.5307 28.0861C47.1248 28.1686 46.8626 28.5645 46.945 28.9704L47.68 28.8211L48.415 28.6718ZM34.3396 29.1412C34.5164 29.5158 34.9634 29.6762 35.338 29.4994C35.7126 29.3227 35.873 28.8757 35.6962 28.5011L35.0179 28.8211L34.3396 29.1412ZM32.75 25.6246C32.75 25.2104 32.4142 24.8746 32 24.8746C31.5858 24.8746 31.25 25.2104 31.25 25.6246H32H32.75ZM29.6604 34.8941C29.4836 34.5194 29.0367 34.359 28.662 34.5358C28.2874 34.7125 28.127 35.1595 28.3038 35.5341L28.9821 35.2141L29.6604 34.8941ZM31.25 38.4106C31.25 38.8248 31.5858 39.1606 32 39.1606C32.4142 39.1606 32.75 38.8248 32.75 38.4106H32H31.25ZM48.5224 16.5305C48.8153 16.2377 48.8154 15.7628 48.5226 15.4698C48.2298 15.1768 47.7549 15.1767 47.462 15.4695L47.9922 16L48.5224 16.5305ZM40.7807 22.1473C40.4877 22.4401 40.4876 22.915 40.7804 23.208C41.0732 23.501 41.5481 23.5011 41.8411 23.2083L41.3109 22.6778L40.7807 22.1473ZM40.7416 16.8052C40.7258 16.3913 40.3774 16.0686 39.9635 16.0845C39.5496 16.1003 39.2269 16.4487 39.2427 16.8626L39.9922 16.8339L40.7416 16.8052ZM40.1813 21.7748H40.9313C40.9313 21.7653 40.9311 21.7557 40.9307 21.7462L40.1813 21.7748ZM42.1454 23.7565L42.0915 24.5046C42.0977 24.505 42.104 24.5054 42.1103 24.5057L42.1454 23.7565ZM47.1088 24.7404C47.5226 24.7598 47.8738 24.4402 47.8932 24.0264C47.9126 23.6126 47.5929 23.2615 47.1792 23.242L47.144 23.9912L47.1088 24.7404ZM35.2 16.3549L35.349 15.6198C34.2663 15.4003 33.1462 15.2852 32 15.2852V16.0352V16.7852C33.0455 16.7852 34.0658 16.8901 35.051 17.0899L35.2 16.3549ZM32 16.0352V15.2852C22.75 15.2852 15.25 22.7757 15.25 32.0176H16H16.75C16.75 23.6057 23.5769 16.7852 32 16.7852V16.0352ZM16 32.0176H15.25C15.25 41.2593 22.75 48.75 32 48.75V48V47.25C23.5769 47.25 16.75 40.4293 16.75 32.0176H16ZM32 48V48.75C41.2499 48.75 48.75 41.2593 48.75 32.0176H48H47.25C47.25 40.4293 40.423 47.25 32 47.25V48ZM48 32.0176H48.75C48.75 30.8726 48.6347 29.7534 48.415 28.6718L47.68 28.8211L46.945 28.9704C47.1449 29.9544 47.25 30.9735 47.25 32.0176H48ZM32 27.2229V26.4729C30.9699 26.4729 30.0085 26.7847 29.2876 27.3248C28.5665 27.865 28.05 28.6688 28.05 29.6202H28.8H29.55C29.55 29.2475 29.7499 28.8527 30.1869 28.5253C30.6242 28.1977 31.2627 27.9729 32 27.9729V27.2229ZM28.8 29.6202H28.05C28.05 30.5715 28.5664 31.3753 29.2875 31.9156C30.0084 32.4557 30.9699 32.7676 32 32.7676V32.0176V31.2676C31.2627 31.2676 30.6242 31.0428 30.1869 30.7152C29.7499 30.3877 29.55 29.9928 29.55 29.6202H28.8ZM32 32.0176V32.7676C32.7373 32.7676 33.3758 32.9924 33.8131 33.32C34.2501 33.6475 34.45 34.0423 34.45 34.4149H35.2H35.95C35.95 33.4636 35.4335 32.6598 34.7125 32.1196C33.9916 31.5795 33.0301 31.2676 32 31.2676V32.0176ZM35.2 34.4149H34.45C34.45 34.7875 34.2501 35.1824 33.8131 35.5099C33.3758 35.8375 32.7373 36.0623 32 36.0623V36.8123V37.5623C33.0301 37.5623 33.9916 37.2504 34.7125 36.7103C35.4336 36.1701 35.95 35.3662 35.95 34.4149H35.2ZM32 27.2229V27.9729C33.1912 27.9729 34.0578 28.5439 34.3396 29.1412L35.0179 28.8211L35.6962 28.5011C35.0993 27.2361 33.5953 26.4729 32 26.4729V27.2229ZM32 27.2229H32.75V25.6246H32H31.25V27.2229H32ZM32 36.8123V36.0623C30.8087 36.0623 29.9422 35.4914 29.6604 34.8941L28.9821 35.2141L28.3038 35.5341C28.9007 36.7992 30.4047 37.5623 32 37.5623V36.8123ZM32 36.8123H31.25V38.4106H32H32.75V36.8123H32ZM47.9922 16L47.462 15.4695L40.7807 22.1473L41.3109 22.6778L41.8411 23.2083L48.5224 16.5305L47.9922 16ZM39.9922 16.8339L39.2427 16.8626L39.4318 21.8035L40.1813 21.7748L40.9307 21.7462L40.7416 16.8052L39.9922 16.8339ZM40.1813 21.7748H39.4313C39.4313 22.5102 39.6548 23.1868 40.1529 23.6937C40.6462 24.1957 41.3283 24.4495 42.0915 24.5046L42.1454 23.7565L42.1994 23.0085C41.6946 22.972 41.3946 22.8172 41.2228 22.6424C41.0559 22.4725 40.9313 22.2041 40.9313 21.7748H40.1813ZM42.1454 23.7565L42.1103 24.5057L47.1088 24.7404L47.144 23.9912L47.1792 23.242L42.1806 23.0073L42.1454 23.7565Z" fill="white"/>
</svg>
