<svg width="64" height="64" viewBox="0 0 64 64" fill="none" xmlns="http://www.w3.org/2000/svg">
<rect width="64" height="64" rx="32" fill="#06234F"/>
<path d="M35.4489 49.4913C35.1679 49.7957 35.1869 50.2701 35.4913 50.5511C35.7957 50.8321 36.2701 50.8131 36.5511 50.5087L36 50L35.4489 49.4913ZM48.5511 37.5087C48.8321 37.2043 48.8131 36.7299 48.5087 36.4489C48.2043 36.1679 47.7299 36.1869 47.4489 36.4913L48 37L48.5511 37.5087ZM36.5511 36.4913C36.2701 36.1869 35.7957 36.1679 35.4913 36.4489C35.1869 36.7299 35.1679 37.2043 35.4489 37.5087L36 37L36.5511 36.4913ZM47.4489 50.5087C47.7299 50.8131 48.2043 50.8321 48.5087 50.5511C48.8131 50.2701 48.8321 49.7957 48.5511 49.4913L48 50L47.4489 50.5087ZM30 50.75C30.4142 50.75 30.75 50.4142 30.75 50C30.75 49.5858 30.4142 49.25 30 49.25V50V50.75ZM22.3453 49.8247L22.3111 50.5739H22.3111L22.3453 49.8247ZM16.4774 44.4175L17.2206 44.3167L17.2206 44.3167L16.4774 44.4175ZM16.4774 32.5825L17.2206 32.6833L17.2206 32.6833L16.4774 32.5825ZM22.3453 27.1753L22.3111 26.4261H22.3111L22.3453 27.1753ZM38.1756 27.1753L38.2098 26.4261H38.2098L38.1756 27.1753ZM43.262 32.4415C43.3359 32.849 43.7262 33.1195 44.1338 33.0457C44.5414 32.9718 44.8119 32.5815 44.738 32.1739L44 32.3077L43.262 32.4415ZM21.25 27C21.25 27.4142 21.5858 27.75 22 27.75C22.4142 27.75 22.75 27.4142 22.75 27H22H21.25ZM37.25 27C37.25 27.4142 37.5858 27.75 38 27.75C38.4142 27.75 38.75 27.4142 38.75 27H38H37.25ZM36 50L36.5511 50.5087L42.5511 44.0087L42 43.5L41.4489 42.9913L35.4489 49.4913L36 50ZM42 43.5L42.5511 44.0087L48.5511 37.5087L48 37L47.4489 36.4913L41.4489 42.9913L42 43.5ZM42 43.5L42.5511 42.9913L36.5511 36.4913L36 37L35.4489 37.5087L41.4489 44.0087L42 43.5ZM42 43.5L41.4489 44.0087L47.4489 50.5087L48 50L48.5511 49.4913L42.5511 42.9913L42 43.5ZM30 50V49.25C27.1874 49.25 24.8941 49.1901 22.3795 49.0754L22.3453 49.8247L22.3111 50.5739C24.8468 50.6895 27.163 50.75 30 50.75V50ZM22.3453 49.8247L22.3795 49.0754C19.7489 48.9554 17.5739 46.9213 17.2206 44.3167L16.4774 44.4175L15.7342 44.5184C16.1826 47.8241 18.9397 50.4201 22.3111 50.5739L22.3453 49.8247ZM16.4774 44.4175L17.2206 44.3167C16.9604 42.3987 16.75 40.4618 16.75 38.5H16H15.25C15.25 40.5636 15.4712 42.5795 15.7342 44.5184L16.4774 44.4175ZM16 38.5H16.75C16.75 36.5382 16.9604 34.6013 17.2206 32.6833L16.4774 32.5825L15.7342 32.4816C15.4712 34.4205 15.25 36.4364 15.25 38.5H16ZM16.4774 32.5825L17.2206 32.6833C17.5739 30.0787 19.7489 28.0446 22.3795 27.9245L22.3453 27.1753L22.3111 26.4261C18.9397 26.5799 16.1826 29.1759 15.7342 32.4816L16.4774 32.5825ZM22.3453 27.1753L22.3795 27.9245C24.8929 27.8099 27.4467 27.75 30.2604 27.75V27V26.25C27.4246 26.25 24.848 26.3103 22.3111 26.4261L22.3453 27.1753ZM30.2604 27V27.75C33.0742 27.75 35.6279 27.8099 38.1415 27.9245L38.1756 27.1753L38.2098 26.4261C35.6729 26.3103 33.0963 26.25 30.2604 26.25V27ZM38.1756 27.1753L38.1415 27.9245C40.6895 28.0408 42.8109 29.9532 43.262 32.4415L44 32.3077L44.738 32.1739C44.1656 29.0169 41.4763 26.5751 38.2098 26.4261L38.1756 27.1753ZM22 27H22.75V22.3571H22H21.25V27H22ZM22 22.3571H22.75C22.75 18.1246 26.0265 14.75 30 14.75V14V13.25C25.137 13.25 21.25 17.3586 21.25 22.3571H22ZM30 14V14.75C33.9736 14.75 37.25 18.1246 37.25 22.3571H38H38.75C38.75 17.3586 34.8631 13.25 30 13.25V14ZM38 22.3571H37.25V27H38H38.75V22.3571H38Z" fill="white"/>
</svg>
