<svg width="64" height="64" viewBox="0 0 64 64" fill="none" xmlns="http://www.w3.org/2000/svg">
<rect width="64" height="64" rx="32" fill="#06234F"/>
<path d="M44.8652 30.3V28.6C44.8652 22.1889 44.8652 18.9834 42.8247 16.9917C40.7845 15 37.5004 15 30.9326 15C24.3647 15 21.0808 15 19.0404 16.9917C17 18.9834 17 22.1889 17 28.6V35.4C17 41.811 17 45.0167 19.0404 47.0083C21.0808 49 24.3647 49 30.9326 49M37.9438 44.9199C38.5259 44.493 39.2496 44.24 40.0337 44.24C40.8178 44.24 41.5415 44.493 42.1236 44.9199M36.5506 38.8073C36.5506 38.8073 37.5324 38.7207 38.0803 39.1454M38.0803 39.1454L37.897 39.713C37.8247 39.9369 38.0137 40.16 38.2757 40.16C38.551 40.16 38.7329 39.9175 38.5911 39.7076C38.4654 39.5216 38.2943 39.3113 38.0803 39.1454ZM41.427 38.8073C41.427 38.8073 42.4088 38.7207 42.9567 39.1454M42.9567 39.1454L42.7734 39.713C42.7011 39.9369 42.8901 40.16 43.1521 40.16C43.4275 40.16 43.6093 39.9175 43.4675 39.7076C43.3419 39.5216 43.1707 39.3113 42.9567 39.1454ZM34.3593 23.7686C34.0004 22.3892 32.1738 21.1445 29.9812 22.0757C27.7886 23.0068 27.4403 26.0028 30.7569 26.3212C32.2558 26.465 33.2332 26.1542 34.1279 27.0334C35.0228 27.9125 35.1889 30.3574 32.9015 31.0162C30.6141 31.6751 28.3492 30.6457 28.1025 29.1837M31.3963 20.44V21.7542M31.3963 31.2189V32.5384M47 41.52C47 45.2755 43.8811 48.32 40.0337 48.32C36.1863 48.32 33.0674 45.2755 33.0674 41.52C33.0674 37.7645 36.1863 34.72 40.0337 34.72C43.8811 34.72 47 37.7645 47 41.52Z" stroke="white" stroke-width="1.5" stroke-linecap="round" stroke-linejoin="round"/>
</svg>
