<svg width="64" height="64" viewBox="0 0 64 64" fill="none" xmlns="http://www.w3.org/2000/svg">
<rect width="64" height="64" rx="32" fill="#06234F"/>
<path d="M43.1874 33.9007C39.6582 27.7968 39.3373 26.833 37.9601 25.1561C37.2132 24.2467 36.6956 23.925 35.7645 23.5452C34.8334 23.1654 34.0331 23.1654 32.4325 23.1654H28.9168C27.3163 23.1654 26.5159 23.1654 25.5849 23.5452C24.6538 23.925 24.2323 24.3353 23.3894 25.1561C20.4925 27.9766 17.1601 32.7786 16.0897 39.2273C15.2932 44.0252 19.7661 47.3937 30.9955 47.3937M33.3277 32.8308C32.9751 31.5274 31.1804 30.3513 29.0261 31.2312C26.8718 32.1109 26.5296 34.9419 29.7882 35.2427C31.261 35.3786 32.2213 35.0849 33.1003 35.9157C33.9796 36.7462 34.1428 39.0564 31.8954 39.6789C29.648 40.3014 27.4226 39.3288 27.1802 37.9474M30.4165 29.6857V30.9275M30.4165 39.8705V41.1172M41.5833 41.2897V44.1811M41.5833 46.4249V46.431M22.9386 18.9894C22.6021 18.499 22.1144 17.8334 23.1219 17.6816C24.1574 17.5256 25.2326 18.2353 26.2852 18.2208C27.2373 18.2076 27.7224 17.7847 28.2428 17.1809C28.7908 16.5452 29.6394 15 30.6747 15C31.7101 15 32.5586 16.5452 33.1066 17.1809C33.6271 17.7847 34.1121 18.2076 35.0642 18.2208C36.1168 18.2353 37.1921 17.5256 38.2276 17.6816C39.235 17.8334 38.7474 18.499 38.4109 18.9894L36.8894 21.2067C36.2387 22.1552 35.9133 22.6295 35.2322 22.8974C34.5513 23.1653 33.6713 23.1653 31.9113 23.1653H29.4382C27.6782 23.1653 26.7982 23.1653 26.1172 22.8974C25.4362 22.6295 25.1108 22.1552 24.46 21.2067L22.9386 18.9894ZM42.8183 49H40.3481C37.3769 49 35.8912 49 35.3438 48.0323C34.7963 47.0647 35.5562 45.7819 37.0759 43.2164L38.311 41.1313C39.7709 38.6669 40.5008 37.4347 41.5832 37.4347C42.6657 37.4347 43.3956 38.6669 44.8554 41.1313L46.0906 43.2164C47.6103 45.7819 48.3701 47.0647 47.8227 48.0323C47.2752 49 45.7896 49 42.8183 49Z" stroke="white" stroke-width="1.5" stroke-linecap="round" stroke-linejoin="round"/>
</svg>
