<svg width="547" height="619" viewBox="0 0 547 619" fill="none" xmlns="http://www.w3.org/2000/svg">
<path d="M335.69 2.09754C330.215 3.85909 325.399 8.43913 323.372 13.8244C320.583 21.072 323.878 29.8294 331.128 34.4094L333.054 35.6677L332.75 43.7708L329.658 44.7271C326.413 45.7337 323.574 47.3946 322.713 48.7535C321.901 50.0621 323.372 51.8236 326.616 53.5348C329.404 54.9441 329.455 55.0447 329.455 57.1586C329.455 58.9705 329.201 59.5241 327.427 61.0843L325.399 62.8962V70.1437C325.399 74.1198 325.247 77.3913 325.044 77.3913C324.842 77.3913 322.662 76.3847 320.127 75.1768C304.716 67.6776 287.785 63.9028 272.424 64.5068C255.239 65.1611 246.418 68.1809 221.883 81.77C216.104 84.9408 209.615 88.2626 207.435 89.1182C203.886 90.5274 202.974 90.6784 198.158 90.6281C191.517 90.6281 185.941 89.0678 178.894 85.3434C165.055 77.9952 165.765 78.2972 162.368 78.4985C158.313 78.7502 152.28 81.619 149.847 84.4375C147.971 86.652 146.957 86.7023 146.045 84.6388C145.639 83.8838 145.031 83.4309 144.321 83.4309C141.432 83.4309 133.676 89.4202 133.017 92.0876C132.459 94.2518 134.487 97.8253 138.644 101.902C143.307 106.633 144.625 106.784 146.349 103.06C148.073 99.2848 149.188 99.2345 153.395 102.808C155.271 104.368 157.552 106.583 158.465 107.74C162.52 112.824 162.774 122.034 158.82 122.99C157.147 123.393 153.7 121.027 152.382 118.461C151.621 117.051 151.114 116.649 149.999 116.649C148.123 116.649 144.575 118.209 142.496 119.92L140.874 121.279L143.764 126.815C146.501 131.999 147.261 133.006 151.418 136.126C152.99 137.284 154.054 139.599 152.838 139.146C151.976 138.794 151.368 146.092 151.824 150.722C152.229 154.598 151.976 154.9 148.174 154.9C146.755 154.9 144.879 155.151 144.068 155.453L142.547 155.956L142.243 175.434C141.888 198.938 141.33 203.518 138.491 205.733C137.275 206.639 137.275 206.639 133.523 204.877C129.975 203.216 129.671 203.166 127.846 203.77C124.804 204.827 124.652 205.028 124.652 208.753C124.652 211.42 124.855 212.427 125.717 213.484L126.781 214.843L120.343 231.301C98.2913 287.418 86.7331 317.868 54.0357 406.046C46.0767 427.487 37.1546 451.394 34.2651 459.145L28.9423 473.237L25.7486 474.495C17.8403 477.565 17.891 477.767 29.9561 483.706C40.247 488.789 47.1413 491.809 55.6072 494.929C58.446 495.986 60.6765 496.892 60.5752 497.043C59.9668 497.597 34.8734 488.839 24.4305 484.36C19.4625 482.246 19.1584 482.598 22.0479 487.329C26.9145 495.382 37.3574 506.555 47.5976 514.709C62.8564 526.889 82.5762 537.106 102.093 542.894C142.293 554.872 189.844 552.406 229.183 536.351C237.091 533.079 248.7 527.291 255.188 523.265C267.811 515.414 282.158 503.485 289.305 494.829C293.259 490.047 297.011 484.41 297.011 483.253C297.011 482.85 295.693 483.152 293.107 484.159C286.365 486.725 265.429 493.671 264.871 493.47C264.618 493.369 265.834 492.765 267.659 492.111C277.494 488.487 297.721 478.824 297.366 477.867C297.061 476.861 290.522 475.25 279.369 473.489C275.821 472.935 272.069 472.331 270.954 472.23C269.89 472.079 264.415 471.425 258.788 470.771C231.109 467.348 195.37 464.58 167.64 463.624L157.603 463.272L157.502 347.613C157.4 283.946 157.35 229.237 157.35 225.966V220.077L159.479 219.926C161.557 219.775 161.608 219.725 161.963 217.51C162.52 213.685 161.963 206.186 160.949 204.273C159.276 201.102 159.225 184.192 160.898 185.601C161.963 186.456 162.622 190.08 163.433 199.24C164.041 206.437 164.345 208.3 165.359 210.212C167.488 214.39 171.797 216.302 178.945 216.302C181.835 216.302 181.885 216.352 182.392 217.913C183.913 223.147 201.757 274.886 210.071 298.34C212.758 305.94 218.486 322.046 222.744 334.074C227.003 346.103 236.33 372.174 243.428 391.954C257.368 430.708 263.502 447.871 266.088 455.269C267 457.836 267.811 459.849 267.963 459.749C268.065 459.648 262.59 443.593 255.746 424.115C248.953 404.637 240.132 379.371 236.178 368.047C232.224 356.673 226.952 341.574 224.468 334.427C221.984 327.33 217.929 315.654 215.445 308.507C212.961 301.41 205.61 280.372 199.172 261.851C192.734 243.279 186.448 225.362 185.282 221.939L183.102 215.749L184.521 215.044C186.853 213.836 187.512 212.427 187.512 208.652C187.512 204.575 186.853 203.72 183.66 203.72C182.139 203.72 180.364 204.223 178.286 205.28L175.194 206.84L173.47 205.129C170.733 202.361 170.226 198.183 169.972 175.283L169.82 156.158L168.604 155.554C167.945 155.201 165.815 154.749 163.838 154.598L160.29 154.245L160.543 146.394C160.797 138.089 161.152 136.277 162.419 136.277C163.99 136.277 168.198 133.761 169.719 131.899C172.203 128.929 173.065 125.708 173.014 119.92C173.014 113.78 172.051 110.055 168.908 103.412C166.12 97.6239 166.272 97.02 170.124 97.8253C171.493 98.1272 177.019 99.7881 182.443 101.499C195.167 105.475 201.453 106.784 208.297 106.784C214.786 106.734 217.878 105.979 233.339 100.593C250.93 94.4028 258.281 92.5406 268.876 91.4333C285.655 89.7221 304.209 94.1008 320.989 103.714L325.399 106.281V114.686C325.399 124.249 325.551 124.752 329.708 126.715L331.939 127.772L330.266 130.137C328.492 132.553 326.92 135.875 326.92 137.083C326.92 137.687 329.303 137.787 340.354 137.787C349.327 137.787 353.788 137.636 353.788 137.284C353.788 136.428 351.76 132.704 349.935 130.137L348.262 127.772L350.036 127.218C351 126.866 352.571 125.909 353.534 124.953L355.309 123.343V106.23L360.784 103.16C377.259 93.8995 395.306 89.7221 411.832 91.4333C422.376 92.4903 429.93 94.4532 446.811 100.392C462.272 105.878 465.973 106.784 472.411 106.784C479.255 106.784 485.592 105.475 498.265 101.499C503.689 99.7881 509.215 98.1272 510.584 97.8253C514.487 97.02 514.588 97.6239 511.597 103.915C504.348 119.266 506.984 133.409 517.579 136.126C519.708 136.68 519.911 137.435 520.215 146.897L520.469 154.245L517.022 154.598C515.095 154.749 512.966 155.101 512.256 155.403L510.938 155.906V170.099C510.938 184.896 510.33 196.774 509.418 201.002C508.809 203.619 507.947 204.978 505.869 206.387C504.095 207.595 503.132 207.444 501.053 205.683C498.772 203.72 495.375 203.116 494.007 204.525C493.246 205.23 493.145 206.035 493.297 209.155C493.449 212.628 493.601 212.98 495.071 214.239L496.693 215.547L490.357 231.653C472.665 276.497 458.876 312.885 425.266 403.278C416.395 427.084 407.016 452.3 404.431 459.346C400.832 468.909 399.412 472.23 398.652 472.532C398.094 472.734 396.016 473.388 394.039 473.992C390.49 474.999 387.246 476.71 386.891 477.817C386.435 479.226 407.067 489.141 422.427 494.929C426.331 496.389 429.271 497.597 428.916 497.647C426.787 497.697 393.988 485.97 388.614 483.253C387.803 482.8 387.043 482.548 386.941 482.649C386.84 482.749 387.398 484.209 388.209 485.87C390.591 490.802 395.559 496.993 403.67 504.945C440.981 541.786 497.555 557.489 556.816 547.423C588.449 542.089 617.902 528.801 641.475 509.223C650.549 501.673 662.411 488.084 663.729 483.706L664.084 482.548L660.637 483.907C655.568 485.819 632.147 493.621 631.437 493.621C631.083 493.57 633.82 492.362 637.419 490.903C648.724 486.373 664.54 478.824 664.54 477.968C664.54 477.062 658.102 475.401 647.812 473.791C618.967 469.11 567.715 464.58 532.99 463.624L520.824 463.272L520.925 456.175C521.026 452.249 521.28 432.067 521.584 411.331C521.888 390.545 522.344 360.347 522.598 344.14C522.851 327.934 523.308 296.78 523.612 274.937C523.916 253.043 524.271 231.753 524.423 227.526L524.727 219.876L526.349 219.725L527.921 219.574L528.073 213.182C528.174 207.494 528.073 206.488 527.11 204.424C526.451 202.914 526.147 201.404 526.248 200.247C526.4 199.24 526.299 196.371 526.045 193.905C525.792 191.389 525.741 188.168 525.893 186.708C526.197 184.343 526.349 184.091 527.414 184.091C529.949 184.091 530.912 187.262 531.926 198.989C532.737 208.149 533.497 210.565 536.437 213.131C538.769 215.145 541.557 215.95 545.765 215.698C547.489 215.598 548.959 215.547 548.959 215.547C548.908 215.95 571.822 282.083 579.781 304.631C592.403 340.215 595.546 349.123 608.422 384.908C623.073 425.675 631.742 449.934 634.124 456.779C635.037 459.346 635.848 461.359 635.949 461.258C636.152 461.107 631.59 447.82 622.465 421.9C619.474 413.395 608.118 380.881 600.159 357.981C596.205 346.607 590.984 331.558 588.5 324.512C580.693 302.216 560.72 244.739 556.005 231.15C553.521 223.952 551.24 217.56 550.986 216.906C550.277 215.296 550.327 214.893 551.443 214.541C553.065 214.037 554.18 211.018 553.825 208.048C553.42 205.33 552.355 203.216 551.392 203.216C551.037 203.216 549.009 204.072 546.83 205.079C542.926 206.89 542.825 206.89 541.101 206.085C539.023 205.129 537.857 203.468 537.198 200.599C536.184 196.019 535.271 184.242 535.018 172.012C534.815 164.966 534.612 158.423 534.46 157.567C534.156 155.503 533.193 155 528.732 154.598L525.133 154.245V149.313C525.133 145.387 525.285 144.33 525.842 144.33C526.349 144.33 526.653 143.374 526.907 141.21C527.312 137.888 527.718 137.284 532.331 133.66C533.446 132.805 535.119 130.338 536.944 126.815L539.834 121.279L538.212 119.92C536.133 118.209 532.585 116.649 530.709 116.649C529.594 116.649 529.087 117.051 528.326 118.461C527.008 121.027 523.561 123.393 521.888 122.99C520.114 122.537 519.049 120.272 519.049 117.001C519.049 111.716 521.229 107.942 527.312 102.808C531.469 99.2848 532.483 99.2848 534.258 103.06C536.032 106.834 538.161 106.331 542.977 101.097C546.424 97.322 548.148 93.9499 547.691 92.0876C547.032 89.4705 539.276 83.4309 536.589 83.4309C536.032 83.4309 534.967 84.1858 534.207 85.0414L532.838 86.7023L530.962 84.5885C528.377 81.5687 522.497 78.7502 518.238 78.4985C515.247 78.2972 514.791 78.3979 510.584 80.6627C498.823 87.0043 496.693 88.0109 492.435 89.2692C488.887 90.3261 486.757 90.6281 482.803 90.6784C476.163 90.7287 473.172 89.6718 459.94 82.3236C436.013 69.1371 428.105 66.1677 413.606 64.7584C396.472 63.1479 378.273 66.671 361.088 74.9251C358.3 76.284 355.816 77.3913 355.663 77.3913C355.461 77.3913 355.309 74.1702 355.309 70.1941C355.309 62.4936 355.106 61.8896 352.267 60.1281C351.152 59.4234 351 59.0208 351.152 57.1586C351.355 55.0951 351.507 54.8937 354.396 53.2329C357.843 51.27 358.654 50.2131 357.843 48.7032C357.235 47.5959 353.129 45.331 349.986 44.4251L347.958 43.8211L347.806 39.7444C347.654 35.7683 347.705 35.6677 349.073 34.8121C351.811 33.1008 354.903 29.7791 356.475 26.8096C357.945 24.0918 358.097 23.3871 358.097 19.2601C358.097 15.284 357.894 14.4284 356.677 12.0126C352.47 4.16107 343.091 -0.3183 335.69 2.09754ZM527.059 158.221C528.124 158.423 528.174 158.674 528.174 162.399C528.174 165.569 528.022 166.425 527.363 166.677C526.197 167.13 519.911 167.029 519.151 166.526C518.695 166.274 518.542 165.016 518.644 162.147L518.796 158.171L520.824 157.869C522.75 157.617 524.474 157.718 527.059 158.221ZM158.82 158.574C159.529 159.077 159.631 159.832 159.529 162.952L159.377 166.727L156.69 166.878C155.119 166.979 153.649 166.777 153.243 166.425C152.28 165.67 152.229 158.624 153.193 158.272C154.46 157.768 157.958 157.919 158.82 158.574ZM520.418 185.45C520.672 186.255 520.824 190.382 520.824 194.66C520.824 201.304 520.672 202.713 519.861 204.223C518.086 207.444 518.086 219.825 519.861 219.825C520.469 219.825 520.52 235.931 520.266 341.473C520.063 408.412 519.911 463.221 519.861 463.221C519.861 463.272 509.975 463.574 497.961 463.876C467.899 464.681 444.023 466.14 426.28 468.204C417.206 469.311 406.712 470.871 403.366 471.677C401.44 472.13 400.426 472.18 400.426 471.828C400.426 471.526 401.795 467.751 403.417 463.473C405.09 459.145 409.855 446.663 414.063 435.741C418.22 424.819 433.529 384.807 448.078 346.909C462.577 308.96 474.844 277 475.301 275.792C475.757 274.635 476.163 273.729 476.264 273.829C476.365 273.93 473.273 283.04 469.37 294.112C465.517 305.135 457.051 329.343 450.613 347.915C438.244 383.398 426.99 415.609 423.745 424.92C414.62 450.84 410.565 462.617 410.717 462.768C410.818 462.869 412.238 459.245 413.86 454.766C420.602 435.842 425.519 422.001 437.787 387.928C444.884 368.148 452.184 347.764 454.009 342.631C455.834 337.497 461.563 321.19 466.835 306.393C472.107 291.596 477.785 275.44 479.458 270.508C481.181 265.626 483.919 257.573 485.642 252.64C487.315 247.758 490.61 238.196 492.942 231.401C495.274 224.607 497.403 218.366 497.707 217.56C498.265 216 498.316 216 501.509 216.201C507.086 216.554 511.648 213.735 513.017 209.105C513.27 208.249 513.828 203.971 514.233 199.593C515.146 190.131 515.754 187.06 517.072 185.349C518.441 183.638 519.911 183.688 520.418 185.45ZM152.229 187.111C152.382 188.218 152.28 190.684 152.027 192.546C151.723 194.409 151.52 197.73 151.57 199.945C151.621 202.612 151.368 204.676 150.861 205.984C150.303 207.343 150.05 209.508 150.1 212.527C150.151 218.819 150.455 220.077 152.027 220.077C153.547 220.077 153.294 214.541 154.054 267.135C154.359 288.022 154.815 319.076 155.068 336.088C155.322 353.099 155.778 382.794 156.082 402.02C156.336 421.246 156.69 442.888 156.893 450.135L157.197 463.272L140.519 463.624C90.5858 464.631 51.2475 467.902 32.4908 472.583C31.3249 472.885 30.2096 472.985 30.0575 472.834C29.8547 472.683 31.4769 468.053 33.5554 462.567C35.6845 457.081 41.0581 442.989 45.5698 431.211C50.0815 419.434 54.5933 407.556 55.7086 404.788C56.7731 402.02 59.5106 394.873 61.7411 388.934C64.0223 382.995 66.557 376.402 67.3681 374.338C68.8382 370.513 70.8153 365.38 75.4791 353.2C76.8985 349.475 78.8756 344.342 79.8388 341.876C80.802 339.359 92.056 310.067 104.831 276.698C121.408 233.515 128.302 216 128.91 215.9C129.367 215.799 129.721 215.849 129.721 215.95C129.721 216.101 127.896 221.486 125.615 227.979C123.385 234.421 119.481 245.544 116.997 252.64C114.513 259.787 110.458 271.464 107.974 278.56C105.49 285.707 98.1392 306.695 91.7011 325.267C85.263 343.788 77.9124 364.826 75.4284 371.923C72.9444 379.069 68.8382 390.847 66.3035 398.094C63.7689 405.392 60.8286 413.898 59.7134 416.968C58.6488 420.088 56.8238 425.222 55.7592 428.292C48.6114 448.676 45.5698 457.534 45.7219 457.735C45.8233 457.836 47.9017 452.3 50.335 445.455C52.819 438.56 61.1328 415.307 68.8889 393.716C95.7566 318.925 109.545 279.819 122.878 240.813L131.09 216.705L133.828 216.604C137.782 216.352 142.192 214.943 144.22 213.182C147.363 210.464 147.971 208.551 148.782 199.24C149.543 190.181 149.796 188.57 150.607 186.456C151.368 184.544 151.824 184.745 152.229 187.111Z" fill="#233D64"/>
<path d="M44.8606 459.144C44.7085 459.597 44.5565 460.251 44.6072 460.553C44.6072 460.906 44.8606 460.604 45.1141 459.949C45.3676 459.295 45.5196 458.641 45.3676 458.54C45.2662 458.439 45.0634 458.691 44.8606 459.144Z" fill="#233D64"/>
<path d="M43.8465 462.163C43.3903 463.472 43.4916 463.774 44.1 462.767C44.4041 462.264 44.5562 461.71 44.4041 461.61C44.3027 461.459 44.0493 461.71 43.8465 462.163Z" fill="#233D64"/>
<path d="M327.427 539.924H321.09C317.592 539.924 314.753 540.075 314.753 540.276C314.753 540.478 316.021 543.447 317.592 546.87L320.482 553.06L318.099 557.942C315.311 563.73 316.426 563.277 302.942 564.083C293.867 564.586 283.982 565.492 276.023 566.599C256.101 569.367 237.192 574.954 235.164 578.678C234.911 579.182 234.657 583.007 234.657 587.184V594.734L231.768 595.086C227.611 595.539 223.251 596.998 221.223 598.508C219.702 599.666 219.5 599.716 219.297 598.911C219.145 598.458 219.043 603.894 218.993 610.99L218.942 623.975L220.716 625.888C230.247 636.407 287.581 643.503 354.294 642.396C410.717 641.49 449.852 635.602 459.332 626.492L461.765 624.177V611.091C461.765 602.837 461.562 598.307 461.258 598.81C460.853 599.414 460.599 599.364 459.585 598.408C457.811 596.747 453.705 595.337 449.599 594.985L446.05 594.633V578.779L444.276 577.269C437.229 571.078 407.219 565.492 372.443 563.781L365.498 563.428L362.507 558.093L359.567 552.758L361.594 549.487C363.825 545.813 365.954 541.484 365.954 540.528C365.954 540.075 364.332 539.924 359.617 539.924H353.281V138.29H327.427V539.924Z" fill="#233D64"/>
<path d="M268.673 462.164C268.724 463.12 269.585 464.73 269.585 463.925C269.585 463.523 269.383 462.818 269.129 462.415C268.876 462.013 268.673 461.862 268.673 462.164Z" fill="#233D64"/>
<path d="M269.636 465.184C269.636 465.436 269.889 466.04 270.143 466.443C270.396 466.845 270.65 466.946 270.65 466.694C270.65 466.392 270.396 465.839 270.143 465.436C269.889 465.033 269.636 464.882 269.636 465.184Z" fill="#233D64"/>
<path d="M637.673 466.694C637.673 466.945 637.926 467.549 638.18 467.952C638.433 468.355 638.687 468.455 638.687 468.204C638.687 467.902 638.433 467.348 638.18 466.945C637.926 466.543 637.673 466.392 637.673 466.694Z" fill="#233D64"/>
</svg>
