<svg width="32" height="32" viewBox="0 0 32 32" fill="none" xmlns="http://www.w3.org/2000/svg">
<path d="M14.7874 4.60966C15.5879 3.6194 17.0977 3.6194 17.8981 4.60966L18.69 5.5892C19.1873 6.20447 20.0006 6.46873 20.7646 6.2633L21.981 5.93626C23.2107 5.60563 24.4321 6.49306 24.4976 7.76471L24.5625 9.0226C24.6032 9.8127 25.1059 10.5045 25.8447 10.7874L27.021 11.2378C28.2101 11.6931 28.6767 13.129 27.9823 14.1963L27.2954 15.2521C26.8639 15.9152 26.8639 16.7704 27.2954 17.4335L27.9823 18.4893C28.6767 19.5566 28.2102 20.9925 27.021 21.4478L25.8447 21.8981C25.1059 22.181 24.6032 22.8728 24.5625 23.663L24.4976 24.9208C24.4321 26.1925 23.2107 27.0799 21.981 26.7493L20.7646 26.4222C20.0006 26.2168 19.1873 26.4811 18.69 27.0963L17.8981 28.0759C17.0977 29.0661 15.5879 29.0662 14.7874 28.0759L13.9956 27.0963C13.4982 26.4811 12.6849 26.2168 11.9209 26.4222L10.7045 26.7493C9.47487 27.0799 8.25344 26.1925 8.1879 24.9208L8.12306 23.663C8.08234 22.8728 7.57969 22.181 6.84084 21.8981L5.66456 21.4478C4.47539 20.9925 4.00885 19.5566 4.70328 18.4893L5.39019 17.4335C5.82166 16.7704 5.82166 15.9152 5.39019 15.2521L4.70328 14.1963C4.00885 13.129 4.4754 11.6931 5.66456 11.2378L6.84084 10.7874C7.57969 10.5045 8.08234 9.8127 8.12306 9.0226L8.1879 7.76471C8.25344 6.49305 9.47488 5.60563 10.7045 5.93626L11.9209 6.2633C12.6849 6.46873 13.4982 6.20447 13.9956 5.5892L14.7874 4.60966Z" fill="#06234F"/>
<path d="M21.0578 12.7207C20.6703 12.3467 20.0562 12.3468 19.6687 12.7209L14.8901 17.335C14.5026 17.7092 13.8884 17.7092 13.5009 17.335L12.9003 16.7551C12.5127 16.3809 11.8983 16.381 11.5108 16.7554L11.2342 17.0227C10.8273 17.4159 10.8275 18.0682 11.2346 18.4612L13.6 20.745C13.9874 21.119 14.6013 21.1191 14.9888 20.7454L15.9881 19.7816C15.9921 19.7777 15.9985 19.7777 16.0026 19.7816C16.0067 19.7855 16.0131 19.7854 16.0172 19.7815L21.4503 14.5387C21.8577 14.1456 21.8578 13.4928 21.4504 13.0996L21.0578 12.7207Z" fill="white"/>
</svg>
