<svg width="107" height="38" viewBox="0 0 107 38" fill="none" xmlns="http://www.w3.org/2000/svg">
<path d="M1.6001 30V29.68C2.06943 29.5947 2.38943 29.4027 2.5601 29.104C2.7521 28.8053 2.8481 28.3467 2.8481 27.728V10.832C2.8481 10.2133 2.7521 9.75466 2.5601 9.45599C2.38943 9.15732 2.06943 8.96532 1.6001 8.87999V8.55999H7.8081C10.6881 8.55999 12.8641 9.05066 14.3361 10.032C15.8081 11.0133 16.5441 12.4427 16.5441 14.32C16.5441 16.2613 15.7868 17.776 14.2721 18.864C12.7574 19.952 10.6028 20.496 7.8081 20.496H6.0481V27.536C6.0481 28.24 6.16543 28.7413 6.4001 29.04C6.63476 29.3387 7.06143 29.552 7.6801 29.68V30H1.6001ZM6.0481 19.76H7.8081C9.6001 19.76 10.9441 19.28 11.8401 18.32C12.7361 17.36 13.1841 16.0267 13.1841 14.32C13.1841 12.6773 12.7468 11.44 11.8721 10.608C11.0188 9.75466 9.6641 9.32799 7.8081 9.32799H6.0481V19.76Z" fill="#1E344B"/>
<path d="M18.9438 8.55999H31.7118L32.0318 14.128H31.7118C31.3705 12.9333 30.9545 11.984 30.4638 11.28C29.9945 10.576 29.3865 10.0747 28.6398 9.77599C27.9145 9.47732 27.0078 9.32799 25.9198 9.32799H23.3918V18.064H25.4718C26.4958 18.064 27.3065 17.84 27.9038 17.392C28.5012 16.944 28.9812 16.1653 29.3438 15.056H29.6958V22.064H29.3438C28.9385 20.8907 28.4372 20.0587 27.8398 19.568C27.2638 19.0773 26.4745 18.832 25.4718 18.832H23.3918V29.232H26.1758C27.5625 29.232 28.7038 29.0293 29.5998 28.624C30.4958 28.2187 31.2318 27.5573 31.8078 26.64C32.4052 25.7013 32.9172 24.4427 33.3438 22.864H33.7278L32.9598 30H18.9438V29.68C19.4132 29.5947 19.7332 29.4027 19.9038 29.104C20.0958 28.8053 20.1918 28.3467 20.1918 27.728V10.832C20.1918 10.2133 20.0958 9.75466 19.9038 9.45599C19.7332 9.15732 19.4132 8.96532 18.9438 8.87999V8.55999Z" fill="#1E344B"/>
<path d="M36.0688 30V29.68C36.5168 29.5947 36.8368 29.4133 37.0288 29.136C37.2208 28.8373 37.3168 28.368 37.3168 27.728V10.832C37.3168 10.192 37.2208 9.73332 37.0288 9.45599C36.8368 9.15732 36.5168 8.96532 36.0688 8.87999V8.55999H42.1488V8.87999C41.5515 9.00799 41.1248 9.22132 40.8688 9.51999C40.6342 9.81866 40.5168 10.32 40.5168 11.024V29.232H42.1808C43.2902 29.232 44.2502 29.1253 45.0608 28.912C45.8715 28.6773 46.5648 28.304 47.1409 27.792C47.7169 27.2587 48.2075 26.5653 48.6129 25.712C49.0395 24.8587 49.4022 23.8027 49.7008 22.544H50.1168L49.3168 30H36.0688Z" fill="#1E344B"/>
<path d="M50.5581 30V29.68C50.9848 29.4453 51.3794 29.136 51.7421 28.752C52.1048 28.3467 52.4674 27.792 52.8301 27.088C53.2141 26.3627 53.6408 25.4133 54.1101 24.24L60.3501 8.33599H60.7341L68.2861 27.088C68.8408 28.4747 69.5341 29.3387 70.3661 29.68V30H64.1581V29.68C64.9048 29.5307 65.2781 29.136 65.2781 28.496C65.2781 28.3253 65.2461 28.1333 65.1821 27.92C65.1181 27.6853 65.0008 27.344 64.8301 26.896L63.1021 22.608H55.7421L55.4221 23.472C55.0381 24.4747 54.7714 25.264 54.6221 25.84C54.4728 26.3947 54.3981 26.832 54.3981 27.152C54.3981 27.792 54.5581 28.304 54.8781 28.688C55.1981 29.072 55.7208 29.392 56.4461 29.648V30H50.5581ZM56.0621 21.84H62.7821L59.3261 13.232L56.0621 21.84Z" fill="#1E344B"/>
<path d="M73.1426 30V29.68C73.7613 29.552 74.1879 29.3387 74.4226 29.04C74.6573 28.7413 74.7746 28.24 74.7746 27.536V20.656L69.4946 11.408C69.0253 10.5973 68.6093 9.99999 68.2466 9.61599C67.9053 9.23199 67.5533 8.98666 67.1906 8.87999V8.55999H73.3986V8.87999C72.8013 9.00799 72.5026 9.33866 72.5026 9.87199C72.5026 10.2347 72.7053 10.7787 73.1106 11.504L77.5586 19.376L80.3106 14.16C80.8226 13.1787 81.1746 12.432 81.3666 11.92C81.5586 11.3867 81.6546 10.928 81.6546 10.544C81.6546 9.79732 81.1639 9.24266 80.1826 8.87999V8.55999H85.7506V8.87999C85.0466 9.26399 84.3853 9.80799 83.7666 10.512C83.1693 11.1947 82.5506 12.112 81.9106 13.264L77.9746 20.304V27.536C77.9746 28.24 78.0919 28.7413 78.3266 29.04C78.5613 29.3387 78.9879 29.552 79.6066 29.68V30H73.1426Z" fill="#1E344B"/>
<path d="M95.6108 30.32C94.1388 30.32 92.7735 30.0427 91.5148 29.488C90.2775 28.9333 89.1895 28.1547 88.2508 27.152C87.3335 26.1493 86.6082 24.976 86.0748 23.632C85.5628 22.288 85.3068 20.8373 85.3068 19.28C85.3068 17.7227 85.5628 16.272 86.0748 14.928C86.6082 13.584 87.3442 12.4107 88.2828 11.408C89.2215 10.4053 90.3095 9.62666 91.5468 9.07199C92.8055 8.51732 94.1602 8.23999 95.6108 8.23999C97.0615 8.23999 98.4055 8.51732 99.6428 9.07199C100.902 9.62666 102 10.4053 102.939 11.408C103.878 12.4107 104.603 13.584 105.115 14.928C105.627 16.272 105.883 17.7227 105.883 19.28C105.883 20.8373 105.616 22.288 105.083 23.632C104.571 24.976 103.846 26.1493 102.907 27.152C101.99 28.1547 100.902 28.9333 99.6428 29.488C98.4055 30.0427 97.0615 30.32 95.6108 30.32ZM95.6108 29.616C96.9762 29.616 98.1602 29.2 99.1628 28.368C100.187 27.536 100.966 26.352 101.499 24.816C102.054 23.2587 102.331 21.4133 102.331 19.28C102.331 17.168 102.054 15.344 101.499 13.808C100.966 12.2507 100.187 11.056 99.1628 10.224C98.1602 9.37066 96.9762 8.94399 95.6108 8.94399C94.2242 8.94399 93.0295 9.35999 92.0268 10.192C91.0242 11.024 90.2455 12.2187 89.6908 13.776C89.1362 15.312 88.8588 17.1467 88.8588 19.28C88.8588 21.392 89.1362 23.2267 89.6908 24.784C90.2455 26.32 91.0242 27.5147 92.0268 28.368C93.0508 29.2 94.2455 29.616 95.6108 29.616Z" fill="#1E344B"/>
</svg>
