<svg width="262" height="618" viewBox="0 0 262 618" fill="none" xmlns="http://www.w3.org/2000/svg">
<path d="M-62.2003 103.05L-63.017 125.732C-87.8375 180.988 -117.444 234.389 -141.872 289.78C-150.204 308.678 -156.097 317.361 -138.967 334.424C-117.496 355.803 -77.5206 363.152 -48.3996 362.266C-57.3313 428.154 -6.6875 468.504 28.2225 515.515C50.4794 545.483 76.0856 578.984 76.6748 618C86.7539 608.348 98.9833 601.26 108.639 591.086C131.516 566.966 139.848 541.376 144.324 508.771C146.123 495.668 148.19 498.743 154.527 487.746C161.226 476.113 164.379 466.232 160.337 452.754L158.3 467.201C157.256 470.703 151.457 473.976 147.839 473.309L136.199 466.68C143.197 483.67 136.044 503.131 128.445 518.808C104.659 507.791 49.8695 472.913 51.5132 443.154C51.6682 440.391 51.7922 438.796 54.2422 437.118C69.7693 454.953 96.3782 480.7 120.661 462.302C100.182 458.476 87.7567 448.782 84.8828 427.07C83.8491 419.263 85.5031 410.819 84.0455 403.564C79.7141 382.092 33.8772 373.211 23.1674 353.604C19.1875 352.958 20.7794 354.928 21.0276 357.492C22.0716 368.614 22.4645 381.466 20.4693 392.588C20.0248 395.069 14.2565 415.437 10.2662 410.986L13.6879 355.334L-1.73578 385.49L-6.98727 386.626C-3.81363 376.067 -6.0672 367.582 -10.471 357.846L1.23111 345.536C-1.95285 322.323 -23.7342 310.127 -41.4941 298.765L-20.8086 297.9C-26.2255 276.062 -30.2158 253.641 -31.3426 231.084C-31.3943 230.031 -33.8753 224.632 -30.2881 224.872C-26.701 225.111 -13.8927 285.694 -10.5744 293.678C-9.73703 295.69 -7.86597 300.026 -5.25055 297.014L-48.4203 130.902C-51.1288 132.487 -52.2142 139.533 -53.0929 142.692C-63.6889 181.03 -65.3222 219.264 -58.4788 258.478C-56.1528 271.789 -50.7773 284.287 -50.1363 297.889C-67.979 292.188 -86.659 290.124 -105.329 290.926L-57.4347 124.377L-57.0315 103.04H-62.19L-62.2003 103.05ZM-74.3056 162.205L-109.608 289.248L-135.597 295.94L-137.375 290.864L-74.3056 162.205Z" fill="#30486D"/>
<path d="M18.4742 306.989C24.0048 312.399 17.4817 318.924 17.1509 323.24C16.4893 331.745 38.3223 354.927 45.6207 360.483C51.8439 346.745 57.9534 315.432 76.9022 314.108C81.7816 313.764 89.1212 316.693 94.7759 315.276L74.845 294.501C72.2296 281.534 77.8326 269.151 70.6169 257.039C71.568 251.837 89.1212 258.55 92.2225 261.313C93.7111 270.777 93.1426 279.888 86.4025 286.882L89.576 290.916C90.1963 287.559 93.432 280.742 95.7166 278.668C98.4767 276.166 101.485 279.585 103.387 276.104L96.647 260.322C99.4174 259.009 100.689 260.354 99.9447 256.132L68.7251 251.827C65.8306 237.818 64.4557 227.331 82.6809 230C81.0992 225.841 74.8243 230.813 73.9663 223.881C72.9222 215.501 84.8931 207.85 92.3259 207.506C97.5567 207.266 99.5621 209.799 103.408 211.738C106.323 213.207 108.556 213.458 105.144 209.986C85.6478 190.109 40.4105 202.429 22.3094 220.462C14.4529 228.28 17.3991 227.217 6.91675 234.513C-10.3677 246.553 -7.24579 285.985 13.6568 293.605L8.53976 302.225L18.4535 306.968L18.4742 306.989Z" fill="#30486D"/>
<path d="M166.395 311.816L164.462 308.219L196.374 173.296L196.591 141.337L206.928 146.538C204.189 139.773 201.139 134.843 205.212 127.431C194.606 123.033 193.82 142.441 188.858 141.316C171.75 125.034 156.502 104.51 139.724 88.2489C122.295 71.3521 107.708 60.8451 83.8181 74.9587C65.7894 55.0912 57.1161 54.7264 33.2363 64.4933L-0.112732 82.1719C20.2213 77.1372 44.9798 56.4775 67.0919 64.0034C73.0566 66.036 80.2723 77.5438 83.9215 78.4923C87.9841 79.5451 98.4044 71.9567 112.98 76.8871C130.957 82.9641 170.24 127.171 185.312 143.161C190.843 149.029 195.061 148.487 193.107 160.464C186.16 168.011 135.041 110.316 128.363 104.854C121.788 99.4751 114.304 93.1167 105.134 94.378L125.851 107.387C143.487 121.917 161.278 148.956 180.929 159.713C190.667 165.05 194.658 158.682 192.673 174.807C174.841 228.583 144.159 277.532 121.767 329.609C116.847 349.257 157.432 361.516 171.77 363.798C192.352 367.071 223.313 365.226 242.8 357.555C248.713 355.23 265.418 347.496 261.376 339.668C259.909 336.832 234.954 322.166 230.539 320.196C227.149 318.685 208.221 311.816 206.07 311.816H166.384H166.395ZM132.756 318.768L178.469 221.39C182.315 223.954 180.319 224.934 179.885 227.978C176.06 254.85 164.627 284.777 159.51 311.847L132.756 318.768Z" fill="#30486D"/>
<path d="M-36.3253 90.8652C-35.4777 91.5949 -17.0871 81.3901 -16.5082 80.4207C-14.1099 76.4493 -11.5358 60.449 -7.66956 52.798C2.15115 33.3892 22.1854 14.366 44.3388 11.3119C68.8079 7.92417 56.992 19.0983 58.553 21.2664C79.7244 22.6111 72.0746 37.0166 77.5328 52.6L64.5901 42.1763C62.9568 42.562 63.5564 46.9503 63.9905 47.9927C64.7142 49.6918 87.6016 65.0354 89.576 64.0243L106.829 48.2533C97.4636 39.143 95.4065 54.6326 87.8911 56.071L89.9792 29.4907C91.8607 24.3102 103.553 21.527 103.397 14.3347C88.2322 14.0741 80.7167 1.99311 64.5694 0.429557C8.64311 -4.98032 -24.8713 41.5822 -36.3461 90.8548L-36.3253 90.8652ZM77.5328 28.2399H86.175L84.4383 52.5895C79.621 53.4443 81.5541 51.5472 80.5617 48.7745C78.2254 42.2388 77.0676 35.182 77.5432 28.2295L77.5328 28.2399Z" fill="#30486D"/>
<path d="M-56.4423 95.5034C-55.0364 97.265 -51.4906 97.3692 -50.4465 100.757C-47.8621 109.221 -54.3645 115.256 -43.5824 121.677L-29.4405 167.416L-24.2614 115.246L-43.2309 118.727L-43.1172 98.9119C-43.4583 97.6715 -53.1653 97.0878 -53.6201 88.113C-53.8475 83.537 -49.8779 82.7552 -50.1364 78.7213C-62.283 77.9499 -63.1411 87.1123 -56.432 95.5138L-56.4423 95.5034Z" fill="#30486D"/>
<path d="M63.7424 80.4625C71.8471 87.4464 73.987 97.3697 80.9752 104.802C83.2288 99.5065 67.2365 77.1269 63.7424 80.4625Z" fill="#30486D"/>
</svg>
