<svg width="262" height="618" viewBox="0 0 262 618" fill="none" xmlns="http://www.w3.org/2000/svg">
<path d="M324.2 103.05L325.017 125.732C349.838 180.988 379.444 234.389 403.872 289.78C412.204 308.678 418.097 317.361 400.967 334.424C379.496 355.803 339.521 363.152 310.4 362.266C319.331 428.154 268.688 468.504 233.777 515.515C211.521 545.483 185.914 578.984 185.325 618C175.246 608.348 163.017 601.26 153.361 591.086C130.484 566.966 122.152 541.376 117.676 508.771C115.877 495.668 113.81 498.743 107.473 487.746C100.774 476.113 97.6212 466.232 101.663 452.754L103.7 467.201C104.744 470.703 110.543 473.976 114.161 473.309L125.801 466.68C118.803 483.67 125.956 503.131 133.555 518.808C157.341 507.791 212.131 472.913 210.487 443.154C210.332 440.391 210.208 438.796 207.758 437.118C192.231 454.953 165.622 480.7 141.339 462.302C161.818 458.476 174.243 448.782 177.117 427.07C178.151 419.263 176.497 410.819 177.954 403.564C182.286 382.092 228.123 373.211 238.833 353.604C242.813 352.958 241.221 354.928 240.972 357.492C239.928 368.614 239.536 381.466 241.531 392.588C241.975 395.069 247.744 415.437 251.734 410.986L248.312 355.334L263.736 385.49L268.987 386.626C265.814 376.067 268.067 367.582 272.471 357.846L260.769 345.536C263.953 322.323 285.734 310.127 303.494 298.765L282.809 297.9C288.225 276.062 292.216 253.641 293.343 231.084C293.394 230.031 295.875 224.632 292.288 224.872C288.701 225.111 275.893 285.694 272.574 293.678C271.737 295.69 269.866 300.026 267.251 297.014L310.42 130.902C313.129 132.487 314.214 139.533 315.093 142.692C325.689 181.03 327.322 219.264 320.479 258.478C318.153 271.789 312.777 284.287 312.136 297.889C329.979 292.188 348.659 290.124 367.329 290.926L319.435 124.377L319.031 103.04H324.19L324.2 103.05ZM336.306 162.205L371.608 289.248L397.597 295.94L399.375 290.864L336.306 162.205Z" fill="#30486D"/>
<path d="M243.526 306.989C237.995 312.399 244.518 318.924 244.849 323.24C245.511 331.745 223.678 354.927 216.379 360.483C210.156 346.745 204.047 315.432 185.098 314.108C180.218 313.764 172.879 316.693 167.224 315.276L187.155 294.501C189.77 281.534 184.167 269.151 191.383 257.039C190.432 251.837 172.879 258.55 169.778 261.313C168.289 270.777 168.857 279.888 175.598 286.882L172.424 290.916C171.804 287.559 168.568 280.742 166.283 278.668C163.523 276.166 160.515 279.585 158.613 276.104L165.353 260.322C162.583 259.009 161.311 260.354 162.055 256.132L193.275 251.827C196.169 237.818 197.544 227.331 179.319 230C180.901 225.841 187.176 230.813 188.034 223.881C189.078 215.501 177.107 207.85 169.674 207.506C164.443 207.266 162.438 209.799 158.592 211.738C155.677 213.207 153.444 213.458 156.856 209.986C176.352 190.109 221.589 202.429 239.691 220.462C247.547 228.28 244.601 227.217 255.083 234.513C272.368 246.553 269.246 285.985 248.343 293.605L253.46 302.225L243.547 306.968L243.526 306.989Z" fill="#30486D"/>
<path d="M95.6053 311.816L97.5384 308.219L65.6263 173.296L65.4092 141.337L55.0716 146.538C57.8111 139.773 60.8607 134.843 56.7877 127.431C67.394 123.033 68.1797 142.441 73.1417 141.316C90.2504 125.034 105.498 104.51 122.276 88.2489C139.705 71.3521 154.292 60.8451 178.182 74.9587C196.211 55.0912 204.884 54.7264 228.764 64.4933L262.113 82.1719C241.779 77.1372 217.02 56.4775 194.908 64.0034C188.943 66.036 181.728 77.5438 178.079 78.4923C174.016 79.5451 163.596 71.9567 149.02 76.8871C131.043 82.9641 91.7597 127.171 76.6875 143.161C71.1569 149.029 66.9392 148.487 68.893 160.464C75.8398 168.011 126.959 110.316 133.637 104.854C140.212 99.4751 147.696 93.1167 156.866 94.378L136.149 107.387C118.513 121.917 100.722 148.956 81.0706 159.713C71.3326 165.05 67.3423 158.682 69.3271 174.807C87.1595 228.583 117.841 277.532 140.233 329.609C145.153 349.257 104.568 361.516 90.2297 363.798C69.6476 367.071 38.6865 365.226 19.2002 357.555C13.2871 355.23 -3.41843 347.496 0.623562 339.668C2.0915 336.832 27.0464 322.166 31.4606 320.196C34.8513 318.685 53.7794 311.816 55.9296 311.816H95.6156H95.6053ZM129.244 318.768L83.531 221.39C79.6854 223.954 81.6806 224.934 82.1148 227.978C85.9397 254.85 97.373 284.777 102.49 311.847L129.244 318.768Z" fill="#30486D"/>
<path d="M298.325 90.8652C297.478 91.5949 279.087 81.3901 278.508 80.4207C276.11 76.4493 273.536 60.449 269.67 52.798C259.849 33.3892 239.815 14.366 217.661 11.3119C193.192 7.92417 205.008 19.0983 203.447 21.2664C182.276 22.6111 189.925 37.0166 184.467 52.6L197.41 42.1763C199.043 42.562 198.444 46.9503 198.009 47.9927C197.286 49.6918 174.398 65.0354 172.424 64.0243L155.171 48.2533C164.536 39.143 166.593 54.6326 174.109 56.071L172.021 29.4907C170.139 24.3102 158.447 21.527 158.603 14.3347C173.768 14.0741 181.283 1.99311 197.431 0.429557C253.357 -4.98032 286.871 41.5822 298.346 90.8548L298.325 90.8652ZM184.467 28.2399H175.825L177.562 52.5895C182.379 53.4443 180.446 51.5472 181.438 48.7745C183.775 42.2388 184.932 35.182 184.457 28.2295L184.467 28.2399Z" fill="#30486D"/>
<path d="M318.442 95.5034C317.036 97.265 313.491 97.3692 312.446 100.757C309.862 109.221 316.364 115.256 305.582 121.677L291.44 167.416L286.261 115.246L305.231 118.727L305.117 98.9119C305.458 97.6715 315.165 97.0878 315.62 88.113C315.848 83.537 311.878 82.7552 312.136 78.7213C324.283 77.9499 325.141 87.1123 318.432 95.5138L318.442 95.5034Z" fill="#30486D"/>
<path d="M198.258 80.4625C190.153 87.4464 188.013 97.3697 181.025 104.802C178.771 99.5065 194.763 77.1269 198.258 80.4625Z" fill="#30486D"/>
</svg>
