<svg width="971" height="361" viewBox="0 0 971 361" fill="none" xmlns="http://www.w3.org/2000/svg">
<path d="M188.548 60.1961L189.023 73.4456C203.458 105.723 220.677 136.916 234.883 169.273C239.729 180.312 243.156 185.384 233.194 195.351C220.707 207.84 197.458 212.132 180.522 211.615C185.716 250.103 156.263 273.673 135.96 301.134C123.016 318.64 108.124 338.209 107.781 361C101.919 355.362 94.807 351.221 89.1917 345.278C75.8868 331.189 71.0411 316.241 68.4378 297.194C67.3917 289.541 66.1893 291.337 62.5039 284.913C58.608 278.118 56.7743 272.346 59.1251 264.473L60.3094 272.912C60.9167 274.958 64.2895 276.87 66.3937 276.48L73.1633 272.607C69.0931 282.532 73.2535 293.9 77.6724 303.058C91.5063 296.622 123.37 276.249 122.415 258.865C122.324 257.251 122.252 256.32 120.827 255.339C111.797 265.757 96.322 280.797 82.1996 270.05C94.1096 267.815 101.336 262.153 103.007 249.47C103.609 244.909 102.647 239.977 103.494 235.739C106.014 223.196 132.671 218.008 138.9 206.555C141.214 206.178 140.289 207.328 140.144 208.826C139.537 215.323 139.309 222.831 140.469 229.328C140.727 230.777 144.082 242.674 146.403 240.074L144.413 207.566L153.383 225.181L156.437 225.845C154.591 219.677 155.902 214.72 158.463 209.033L151.658 201.842C153.509 188.282 166.177 181.158 176.506 174.521L164.475 174.016C167.626 161.26 169.946 148.162 170.602 134.986C170.632 134.371 172.075 131.217 169.988 131.357C167.902 131.497 160.453 166.886 158.523 171.55C158.036 172.725 156.948 175.258 155.427 173.498L180.534 76.4657C182.109 77.3912 182.74 81.5073 183.251 83.3522C189.414 105.747 190.363 128.081 186.383 150.988C185.031 158.763 181.904 166.064 181.532 174.01C191.909 170.679 202.773 169.474 213.63 169.942L185.776 72.654L185.542 60.19H188.542L188.548 60.1961ZM195.588 94.7506L216.119 168.962L231.234 172.871L232.268 169.906L195.588 94.7506Z" fill="#9C835C"/>
<path d="M141.629 179.325C138.413 182.485 142.206 186.297 142.399 188.818C142.784 193.786 130.086 207.328 125.842 210.574C122.222 202.548 118.669 184.257 107.649 183.484C104.811 183.283 100.543 184.994 97.2539 184.166L108.845 172.031C110.366 164.456 107.108 157.223 111.304 150.147C110.751 147.109 100.543 151.03 98.7389 152.644C97.8732 158.172 98.2038 163.494 102.124 167.58L100.278 169.936C99.9173 167.976 98.0355 163.993 96.7068 162.782C95.1016 161.32 93.352 163.318 92.2458 161.284L96.1657 152.065C94.5545 151.298 93.815 152.084 94.2479 149.618L112.404 147.103C114.088 138.919 114.887 132.794 104.288 134.353C105.208 131.923 108.857 134.828 109.356 130.779C109.964 125.883 103.001 121.414 98.6788 121.213C95.6367 121.073 94.4703 122.552 92.2338 123.685C90.5384 124.543 89.2398 124.69 91.2238 122.662C102.563 111.05 128.872 118.248 139.399 128.781C143.968 133.348 142.255 132.727 148.351 136.989C158.403 144.022 156.587 167.056 144.431 171.507L147.407 176.543L141.641 179.313L141.629 179.325Z" fill="#9C835C"/>
<path d="M55.602 182.145L56.7262 180.044L38.1668 101.229L38.0406 82.5607L32.0285 85.599C33.6217 81.6473 35.3952 78.7673 33.0265 74.4381C39.1949 71.8686 39.6518 83.2061 42.5376 82.5485C52.4877 73.0376 61.3556 61.0486 71.1132 51.5499C81.2496 41.6798 89.7327 35.5422 103.627 43.7866C114.112 32.1811 119.156 31.968 133.044 37.6733L152.439 48.0001C140.613 45.0591 126.214 32.9909 113.354 37.3871C109.885 38.5745 105.689 45.2966 103.567 45.8507C101.204 46.4657 95.1436 42.0329 86.6666 44.913C76.2115 48.4628 53.3655 74.2859 44.5998 83.6262C41.3833 87.0543 38.9304 86.7377 40.0667 93.7338C44.1068 98.1422 73.8367 64.4401 77.7205 61.2495C81.5442 58.1076 85.897 54.3934 91.2297 55.1302L79.1815 62.7291C68.9248 71.217 58.578 87.0117 47.1489 93.2954C41.4855 96.4129 39.1648 92.6926 40.3192 102.112C50.69 133.525 68.534 162.118 81.5563 192.538C84.418 204.016 60.8144 211.177 52.4756 212.51C40.5055 214.422 22.4993 213.344 11.1664 208.863C7.72749 207.505 -1.98809 202.987 0.36265 198.414C1.21637 196.758 15.7296 188.191 18.2968 187.04C20.2688 186.157 31.2769 182.145 32.5275 182.145H55.608H55.602ZM75.1654 186.206L48.5798 129.323C46.3433 130.821 47.5036 131.394 47.7562 133.172C49.9806 148.869 56.63 166.35 59.606 182.163L75.1654 186.206Z" fill="#9C835C"/>
<path d="M173.5 53.0782C173.007 53.5045 162.311 47.5434 161.974 46.9771C160.58 44.6573 159.082 35.3108 156.834 30.8416C151.122 19.504 139.471 8.39178 126.587 6.60774C112.356 4.62884 119.228 11.1561 118.32 12.4226C106.008 13.2081 110.457 21.623 107.282 30.7259L114.809 24.637C115.759 24.8623 115.411 27.4257 115.158 28.0346C114.737 29.0271 101.426 37.9899 100.278 37.3993L90.2438 28.1868C95.6908 22.8651 96.8872 31.9132 101.258 32.7535L100.044 17.2268C98.9493 14.2006 92.1496 12.5749 92.2398 8.37351C101.06 8.22129 105.43 1.16426 114.821 0.250922C147.347 -2.90922 166.838 24.2899 173.512 53.0721L173.5 53.0782ZM107.282 16.4961H102.256L103.266 30.7198C106.068 31.2191 104.943 30.1109 105.521 28.4912C106.879 24.6735 107.553 20.5513 107.276 16.49L107.282 16.4961Z" fill="#9C835C"/>
<path d="M185.199 55.7876C184.381 56.8166 182.319 56.8775 181.712 58.8564C180.209 63.8006 183.991 67.326 177.72 71.0768L169.495 97.7949L166.483 67.32L177.516 69.3536L177.45 57.7787C177.648 57.0541 183.293 56.7131 183.558 51.4705C183.69 48.7975 181.381 48.3409 181.532 45.9844C188.596 45.5339 189.095 50.886 185.193 55.7937L185.199 55.7876Z" fill="#9C835C"/>
<path d="M115.302 47.0016C110.589 51.0811 109.344 56.8778 105.28 61.2192C103.969 58.126 113.27 45.0531 115.302 47.0016Z" fill="#9C835C"/>
<path d="M288.65 114.173V112.916C290.494 112.58 291.752 111.826 292.422 110.652C293.177 109.479 293.554 107.676 293.554 105.245V38.8483C293.554 36.4171 293.177 34.6147 292.422 33.441C291.752 32.2673 290.494 31.5128 288.65 31.1775V29.92H313.046C324.363 29.92 332.914 31.8482 338.699 35.7045C344.483 39.5609 347.376 45.1778 347.376 52.5552C347.376 60.1841 344.4 66.1363 338.447 70.4119C332.495 74.6874 324.028 76.8252 313.046 76.8252H306.129V104.49C306.129 107.257 306.59 109.227 307.513 110.401C308.435 111.574 310.111 112.413 312.543 112.916V114.173H288.65ZM306.129 73.9329H313.046C320.088 73.9329 325.369 72.0466 328.89 68.2741C332.411 64.5016 334.172 59.2619 334.172 52.5552C334.172 46.1 332.453 41.2376 329.016 37.9681C325.663 34.6147 320.339 32.938 313.046 32.938H306.129V73.9329Z" fill="#9C835C"/>
<path d="M356.806 29.92H406.981L408.238 51.8007H406.981C405.639 47.106 404.005 43.3754 402.076 40.6088C400.232 37.8423 397.843 35.8722 394.909 34.6985C392.058 33.5248 388.495 32.938 384.22 32.938H374.285V67.2681H382.459C386.483 67.2681 389.669 66.3878 392.016 64.6273C394.364 62.8668 396.25 59.8069 397.675 55.4475H399.058V82.987H397.675C396.082 78.3761 394.112 75.1066 391.765 73.1784C389.501 71.2502 386.4 70.2861 382.459 70.2861H374.285V111.155H385.226C390.675 111.155 395.16 110.359 398.681 108.766C402.202 107.173 405.094 104.574 407.358 100.969C409.705 97.2807 411.717 92.3345 413.394 86.1308H414.903L411.885 114.173H356.806V112.916C358.65 112.58 359.908 111.826 360.579 110.652C361.333 109.479 361.71 107.676 361.71 105.245V38.8483C361.71 36.4171 361.333 34.6147 360.579 33.441C359.908 32.2673 358.65 31.5128 356.806 31.1775V29.92Z" fill="#9C835C"/>
<path d="M424.103 114.173V112.916C425.863 112.58 427.121 111.868 427.875 110.778C428.63 109.604 429.007 107.76 429.007 105.245V38.8483C429.007 36.3333 428.63 34.5309 427.875 33.441C427.121 32.2673 425.863 31.5128 424.103 31.1775V29.92H447.995V31.1775C445.648 31.6805 443.971 32.5188 442.965 33.6925C442.043 34.8662 441.582 36.8363 441.582 39.6028V111.155H448.121C452.48 111.155 456.253 110.736 459.439 109.898C462.624 108.976 465.349 107.508 467.612 105.496C469.876 103.401 471.804 100.676 473.397 97.3226C475.074 93.9693 476.499 89.8195 477.673 84.8733H479.307L476.164 114.173H424.103Z" fill="#9C835C"/>
<path d="M481.041 114.173V112.916C482.718 111.994 484.269 110.778 485.694 109.269C487.119 107.676 488.544 105.496 489.97 102.73C491.479 99.8796 493.155 96.149 495 91.5381L519.521 29.0397H521.03L550.707 102.73C552.887 108.179 555.612 111.574 558.881 112.916V114.173H534.485V112.916C537.42 112.329 538.887 110.778 538.887 108.263C538.887 107.592 538.761 106.838 538.51 105.999C538.258 105.077 537.797 103.736 537.126 101.975L530.336 85.1248H501.413L500.155 88.52C498.646 92.4603 497.599 95.5621 497.012 97.8256C496.425 100.005 496.131 101.724 496.131 102.981C496.131 105.496 496.76 107.508 498.018 109.017C499.275 110.527 501.329 111.784 504.179 112.79V114.173H481.041ZM502.67 82.1067H529.078L515.497 48.2797L502.67 82.1067Z" fill="#9C835C"/>
<path d="M569.792 114.173V112.916C572.223 112.413 573.9 111.574 574.822 110.401C575.744 109.227 576.205 107.257 576.205 104.49V77.4539L555.456 41.1118C553.612 37.9261 551.977 35.5788 550.552 34.0698C549.211 32.5608 547.828 31.5967 546.402 31.1775V29.92H570.798V31.1775C568.451 31.6805 567.277 32.9799 567.277 35.0758C567.277 36.501 568.073 38.6387 569.666 41.4891L587.146 72.4239L597.96 51.9264C599.972 48.0701 601.356 45.1359 602.11 43.1239C602.865 41.028 603.242 39.2256 603.242 37.7166C603.242 34.7824 601.314 32.6027 597.457 31.1775V29.92H619.338V31.1775C616.571 32.6865 613.973 34.8243 611.541 37.5908C609.194 40.2735 606.763 43.8784 604.248 48.4054L588.78 76.0707V104.49C588.78 107.257 589.242 109.227 590.164 110.401C591.086 111.574 592.763 112.413 595.194 112.916V114.173H569.792Z" fill="#9C835C"/>
<path d="M658.086 115.431C652.302 115.431 646.936 114.341 641.99 112.161C637.128 109.982 632.852 106.922 629.163 102.981C625.558 99.0412 622.708 94.4304 620.612 89.1488C618.6 83.8672 617.594 78.1665 617.594 72.0466C617.594 65.9267 618.6 60.226 620.612 54.9445C622.708 49.6629 625.6 45.052 629.289 41.1118C632.978 37.1716 637.253 34.1117 642.116 31.932C647.062 29.7523 652.385 28.6625 658.086 28.6625C663.787 28.6625 669.068 29.7523 673.931 31.932C678.877 34.1117 683.194 37.1716 686.883 41.1118C690.572 45.052 693.422 49.6629 695.434 54.9445C697.446 60.226 698.452 65.9267 698.452 72.0466C698.452 78.1665 697.404 83.8672 695.308 89.1488C693.296 94.4304 690.446 99.0412 686.757 102.981C683.152 106.922 678.877 109.982 673.931 112.161C669.068 114.341 663.787 115.431 658.086 115.431ZM658.086 112.664C663.451 112.664 668.104 111.03 672.044 107.76C676.068 104.49 679.128 99.8377 681.224 93.8016C683.404 87.6817 684.494 80.4301 684.494 72.0466C684.494 63.7471 683.404 56.5792 681.224 50.5432C679.128 44.4233 676.068 39.7286 672.044 36.459C668.104 33.1057 663.451 31.429 658.086 31.429C652.637 31.429 647.942 33.0638 644.002 36.3333C640.062 39.6028 637.002 44.2975 634.822 50.4174C632.642 56.4535 631.553 63.6632 631.553 72.0466C631.553 80.3462 632.642 87.5559 634.822 93.6758C637.002 99.7119 640.062 104.407 644.002 107.76C648.026 111.03 652.721 112.664 658.086 112.664Z" fill="#9C835C"/>
<path d="M328.765 215.605C322.561 215.605 316.86 214.558 311.662 212.462C306.548 210.366 302.105 207.39 298.333 203.533C294.644 199.677 291.752 195.15 289.656 189.952C287.644 184.671 286.638 178.844 286.638 172.473C286.638 166.269 287.602 160.526 289.53 155.245C291.542 149.963 294.309 145.352 297.83 141.412C301.351 137.472 305.459 134.412 310.153 132.232C314.848 129.969 319.962 128.837 325.495 128.837C329.016 128.837 332.202 129.131 335.052 129.717C337.902 130.22 340.334 130.765 342.346 131.352C344.442 131.855 346.118 132.107 347.376 132.107C349.639 132.107 351.4 131.226 352.657 129.466H353.663L355.298 155.748H353.915C350.813 147.784 346.873 141.79 342.094 137.765C337.316 133.658 331.866 131.604 325.746 131.604C320.716 131.604 316.273 133.113 312.417 136.131C308.644 139.149 305.71 143.382 303.614 148.832C301.518 154.281 300.471 160.694 300.471 168.072C300.471 174.694 301.141 180.772 302.483 186.305C303.908 191.755 305.92 196.491 308.519 200.515C311.117 204.456 314.177 207.515 317.698 209.695C321.219 211.791 325.16 212.839 329.519 212.839C332.705 212.839 335.639 212.21 338.322 210.953C341.088 209.695 343.268 207.935 344.861 205.671C346.537 203.324 347.376 200.683 347.376 197.749V178.886C347.376 176.203 346.957 174.233 346.118 172.976C345.28 171.718 343.897 170.838 341.968 170.335V169.078H364.478V170.335C362.634 170.67 361.334 171.467 360.58 172.724C359.909 173.898 359.574 175.7 359.574 178.132V215.102H358.442C357.52 212.839 356.597 211.288 355.675 210.45C354.837 209.528 353.705 209.066 352.28 209.066C351.19 209.066 349.933 209.402 348.507 210.072C347.166 210.743 345.573 211.498 343.729 212.336C341.885 213.174 339.747 213.929 337.316 214.599C334.884 215.27 332.034 215.605 328.765 215.605Z" fill="#9C835C"/>
<path d="M412.356 215.605C406.571 215.605 401.206 214.516 396.259 212.336C391.397 210.156 387.122 207.096 383.433 203.156C379.828 199.216 376.978 194.605 374.882 189.323C372.87 184.042 371.864 178.341 371.864 172.221C371.864 166.101 372.87 160.401 374.882 155.119C376.978 149.838 379.87 145.227 383.559 141.287C387.247 137.346 391.523 134.286 396.385 132.107C401.331 129.927 406.655 128.837 412.356 128.837C418.056 128.837 423.338 129.927 428.2 132.107C433.146 134.286 437.464 137.346 441.153 141.287C444.841 145.227 447.692 149.838 449.704 155.119C451.716 160.401 452.722 166.101 452.722 172.221C452.722 178.341 451.674 184.042 449.578 189.323C447.566 194.605 444.716 199.216 441.027 203.156C437.422 207.096 433.146 210.156 428.2 212.336C423.338 214.516 418.056 215.605 412.356 215.605ZM412.356 212.839C417.721 212.839 422.374 211.204 426.314 207.935C430.338 204.665 433.398 200.012 435.494 193.976C437.674 187.856 438.763 180.605 438.763 172.221C438.763 163.922 437.674 156.754 435.494 150.718C433.398 144.598 430.338 139.903 426.314 136.634C422.374 133.28 417.721 131.604 412.356 131.604C406.906 131.604 402.212 133.238 398.271 136.508C394.331 139.777 391.271 144.472 389.092 150.592C386.912 156.628 385.822 163.838 385.822 172.221C385.822 180.521 386.912 187.731 389.092 193.851C391.271 199.887 394.331 204.581 398.271 207.935C402.296 211.204 406.99 212.839 412.356 212.839Z" fill="#9C835C"/>
<path d="M459.885 214.348V213.09C462.232 212.168 464.076 210.827 465.418 209.066C466.759 207.306 467.681 204.875 468.184 201.773C468.771 198.671 469.064 194.689 469.064 189.826V138.897L467.933 137.262C466.675 135.502 465.501 134.203 464.412 133.364C463.322 132.442 462.148 131.771 460.891 131.352V130.095H478.37L524.772 191.964V151.724C524.772 147.7 524.437 144.388 523.766 141.79C523.096 139.107 521.922 136.969 520.245 135.376C518.652 133.7 516.515 132.358 513.832 131.352V130.095H536.593V131.352C534.665 132.274 533.114 133.49 531.94 134.999C530.766 136.508 529.886 138.562 529.299 141.161C528.712 143.676 528.419 147.029 528.419 151.221V215.228H526.533L472.711 143.802V189.575C472.711 194.186 473.088 198.042 473.843 201.144C474.598 204.162 475.855 206.635 477.616 208.563C479.376 210.408 481.765 211.917 484.783 213.09V214.348H459.885Z" fill="#9C835C"/>
<path d="M602.997 130.095V131.352L556.972 211.33H574.2C578.895 211.33 582.877 210.911 586.147 210.072C589.5 209.15 592.35 207.683 594.698 205.671C597.045 203.575 599.015 200.851 600.608 197.497C602.285 194.144 603.752 189.994 605.009 185.048H606.518L603.374 214.348H542.134V213.09L588.159 133.113H573.823C568.793 133.113 564.685 133.783 561.499 135.125C558.397 136.466 555.883 138.771 553.954 142.041C552.026 145.311 550.433 149.796 549.176 155.496H547.918L549.679 130.095H602.997Z" fill="#9C835C"/>
<path d="M607.529 214.348V213.09C609.206 212.168 610.757 210.953 612.182 209.444C613.607 207.851 615.032 205.671 616.458 202.905C617.966 200.054 619.643 196.324 621.488 191.713L646.009 129.214H647.518L677.195 202.905C679.375 208.354 682.1 211.749 685.369 213.09V214.348H660.973V213.09C663.908 212.504 665.375 210.953 665.375 208.438C665.375 207.767 665.249 207.012 664.997 206.174C664.746 205.252 664.285 203.911 663.614 202.15L656.824 185.299H627.901L626.643 188.695C625.134 192.635 624.086 195.737 623.5 198C622.913 200.18 622.619 201.899 622.619 203.156C622.619 205.671 623.248 207.683 624.506 209.192C625.763 210.701 627.817 211.959 630.667 212.965V214.348H607.529ZM629.158 182.281H655.566L641.985 148.454L629.158 182.281Z" fill="#9C835C"/>
<path d="M690.955 214.348V213.09C692.716 212.755 693.973 212.043 694.728 210.953C695.482 209.779 695.86 207.935 695.86 205.42V139.023C695.86 136.508 695.482 134.706 694.728 133.616C693.973 132.442 692.716 131.688 690.955 131.352V130.095H714.848V131.352C712.501 131.855 710.824 132.694 709.818 133.867C708.896 135.041 708.435 137.011 708.435 139.778V211.33H714.974C719.333 211.33 723.106 210.911 726.291 210.072C729.477 209.15 732.202 207.683 734.465 205.671C736.729 203.575 738.657 200.851 740.25 197.497C741.926 194.144 743.352 189.994 744.525 185.048H746.16L743.016 214.348H690.955Z" fill="#9C835C"/>
<path d="M754.936 130.095H805.111L806.368 151.975H805.111C803.769 147.281 802.135 143.55 800.206 140.784C798.362 138.017 795.973 136.047 793.039 134.873C790.188 133.7 786.625 133.113 782.35 133.113H772.415V167.443H780.589C784.613 167.443 787.799 166.563 790.146 164.802C792.494 163.041 794.38 159.982 795.805 155.622H797.188V183.162H795.805C794.212 178.551 792.242 175.281 789.895 173.353C787.631 171.425 784.529 170.461 780.589 170.461H772.415V211.33H783.356C788.805 211.33 793.29 210.534 796.811 208.941C800.332 207.348 803.224 204.749 805.488 201.144C807.835 197.455 809.847 192.509 811.524 186.305H813.033L810.015 214.348H754.936V213.09C756.78 212.755 758.038 212.001 758.709 210.827C759.463 209.653 759.84 207.851 759.84 205.42V139.023C759.84 136.592 759.463 134.789 758.709 133.616C758.038 132.442 756.78 131.688 754.936 131.352V130.095Z" fill="#9C835C"/>
<path d="M878.569 130.095V131.352L832.544 211.33H849.772C854.467 211.33 858.449 210.911 861.718 210.072C865.072 209.15 867.922 207.683 870.269 205.671C872.617 203.575 874.587 200.851 876.18 197.497C877.856 194.144 879.323 189.994 880.581 185.048H882.09L878.946 214.348H817.705V213.09L863.73 133.113H849.395C844.365 133.113 840.257 133.783 837.071 135.125C833.969 136.466 831.454 138.771 829.526 142.041C827.598 145.311 826.005 149.796 824.747 155.496H823.49L825.25 130.095H878.569Z" fill="#9C835C"/>
<path d="M306.129 239.198V267.869H345.364V239.198C345.364 236.683 344.986 234.88 344.232 233.79C343.477 232.617 342.22 231.862 340.459 231.527V230.269H362.969V231.527C361.124 231.862 359.825 232.617 359.071 233.79C358.316 234.88 357.939 236.683 357.939 239.198V305.594C357.939 308.109 358.316 309.954 359.071 311.127C359.825 312.217 361.124 312.93 362.969 313.265V314.523H340.459V313.265C342.22 312.93 343.477 312.217 344.232 311.127C344.986 309.954 345.364 308.109 345.364 305.594V270.384H306.129V305.594C306.129 308.109 306.507 309.954 307.261 311.127C308.016 312.217 309.315 312.93 311.159 313.265V314.523H288.65V313.265C290.41 312.93 291.668 312.217 292.422 311.127C293.177 309.954 293.554 308.109 293.554 305.594V239.198C293.554 236.683 293.177 234.88 292.422 233.79C291.668 232.617 290.41 231.862 288.65 231.527V230.269H311.159V231.527C309.315 231.862 308.016 232.617 307.261 233.79C306.507 234.88 306.129 236.683 306.129 239.198Z" fill="#9C835C"/>
<path d="M375.472 230.269H425.647L426.904 252.15H425.647C424.306 247.455 422.671 243.725 420.743 240.958C418.898 238.192 416.509 236.222 413.575 235.048C410.724 233.874 407.161 233.287 402.886 233.287H392.952V267.617H401.125C405.15 267.617 408.335 266.737 410.683 264.977C413.03 263.216 414.916 260.156 416.341 255.797H417.725V283.336H416.341C414.749 278.725 412.778 275.456 410.431 273.528C408.168 271.6 405.066 270.635 401.125 270.635H392.952V311.505H403.892C409.341 311.505 413.826 310.708 417.347 309.115C420.868 307.522 423.761 304.924 426.024 301.319C428.372 297.63 430.384 292.684 432.06 286.48H433.569L430.551 314.523H375.472V313.265C377.317 312.93 378.574 312.175 379.245 311.002C379.999 309.828 380.377 308.026 380.377 305.594V239.198C380.377 236.766 379.999 234.964 379.245 233.79C378.574 232.617 377.317 231.862 375.472 231.527V230.269Z" fill="#9C835C"/>
<path d="M442.769 230.269H467.542C477.853 230.269 485.859 232.03 491.56 235.551C497.261 238.988 500.111 243.85 500.111 250.138C500.111 255.671 498.183 260.156 494.327 263.593C490.47 266.947 484.937 269.085 477.728 270.007V270.384C481.081 271.138 483.805 272.061 485.901 273.151C488.081 274.157 489.842 275.456 491.183 277.049C492.608 278.642 493.824 280.696 494.83 283.211L503.129 302.073C504.219 304.504 505.183 306.433 506.022 307.858C506.944 309.283 507.866 310.415 508.788 311.253C509.71 312.091 510.8 312.762 512.058 313.265V314.523L505.77 314.271C503.004 314.187 500.74 313.852 498.979 313.265C497.303 312.594 495.836 311.547 494.578 310.121C493.404 308.612 492.189 306.475 490.931 303.708L480.997 283.462C479.572 280.276 478.189 277.887 476.847 276.294C475.506 274.701 473.913 273.654 472.069 273.151C470.308 272.564 467.961 272.27 465.027 272.27H460.248V305.594C460.248 308.026 460.625 309.828 461.38 311.002C462.134 312.175 463.434 312.93 465.278 313.265V314.523H442.769V313.265C444.613 312.93 445.871 312.175 446.541 311.002C447.296 309.828 447.673 308.026 447.673 305.594V239.198C447.673 236.766 447.296 234.964 446.541 233.79C445.871 232.617 444.613 231.862 442.769 231.527V230.269ZM460.248 233.287V269.252H468.296C474.165 269.252 478.734 267.576 482.003 264.222C485.356 260.785 487.033 256.048 487.033 250.012C487.033 238.862 480.536 233.287 467.542 233.287H460.248Z" fill="#9C835C"/>
<path d="M513.795 314.523V313.265C516.143 312.343 517.987 311.002 519.329 309.241C520.67 307.481 521.592 305.049 522.095 301.948C522.682 298.846 522.975 294.864 522.975 290.001V239.072L521.844 237.437C520.586 235.677 519.412 234.377 518.323 233.539C517.233 232.617 516.059 231.946 514.802 231.527V230.269H532.281L578.683 292.139V251.899C578.683 247.875 578.348 244.563 577.677 241.964C577.006 239.282 575.833 237.144 574.156 235.551C572.563 233.874 570.425 232.533 567.743 231.527V230.269H590.504V231.527C588.576 232.449 587.025 233.665 585.851 235.174C584.677 236.683 583.797 238.737 583.21 241.335C582.623 243.85 582.33 247.204 582.33 251.396V315.403H580.444L526.622 243.976V289.75C526.622 294.361 526.999 298.217 527.754 301.319C528.508 304.337 529.766 306.81 531.526 308.738C533.287 310.582 535.676 312.091 538.694 313.265V314.523H513.795Z" fill="#9C835C"/>
<path d="M591.073 314.523V313.265C592.75 312.343 594.301 311.127 595.726 309.618C597.151 308.026 598.577 305.846 600.002 303.079C601.511 300.229 603.188 296.498 605.032 291.887L629.553 229.389H631.062L660.74 303.079C662.919 308.529 665.644 311.924 668.913 313.265V314.523H644.518V313.265C647.452 312.678 648.919 311.127 648.919 308.612C648.919 307.942 648.793 307.187 648.542 306.349C648.29 305.427 647.829 304.085 647.158 302.325L640.368 285.474H611.445L610.188 288.869C608.679 292.81 607.631 295.911 607.044 298.175C606.457 300.355 606.164 302.073 606.164 303.331C606.164 305.846 606.792 307.858 608.05 309.367C609.307 310.876 611.361 312.133 614.212 313.139V314.523H591.073ZM612.703 282.456H639.11L625.529 248.629L612.703 282.456Z" fill="#9C835C"/>
<path d="M671.23 314.523V313.265C673.577 312.343 675.422 311.002 676.763 309.241C678.104 307.481 679.027 305.049 679.53 301.948C680.116 298.846 680.41 294.864 680.41 290.001V239.072L679.278 237.437C678.021 235.677 676.847 234.377 675.757 233.539C674.667 232.617 673.494 231.946 672.236 231.527V230.269H689.715L736.118 292.139V251.899C736.118 247.875 735.782 244.563 735.112 241.964C734.441 239.282 733.267 237.144 731.591 235.551C729.998 233.874 727.86 232.533 725.177 231.527V230.269H747.938V231.527C746.01 232.449 744.459 233.665 743.285 235.174C742.112 236.683 741.231 238.737 740.645 241.335C740.058 243.85 739.764 247.204 739.764 251.396V315.403H737.878L684.057 243.976V289.75C684.057 294.361 684.434 298.217 685.188 301.319C685.943 304.337 687.2 306.81 688.961 308.738C690.721 310.582 693.111 312.091 696.129 313.265V314.523H671.23Z" fill="#9C835C"/>
<path d="M758.006 314.523V313.265C759.85 312.93 761.108 312.175 761.779 311.002C762.533 309.828 762.91 308.026 762.91 305.594V239.198C762.91 236.766 762.533 234.964 761.779 233.79C761.108 232.617 759.85 231.862 758.006 231.527V230.269H786.677C796.318 230.269 804.618 231.988 811.576 235.425C818.534 238.779 823.9 243.599 827.672 249.887C831.445 256.174 833.331 263.677 833.331 272.396C833.331 281.115 831.445 288.618 827.672 294.905C823.9 301.193 818.534 306.055 811.576 309.493C804.618 312.846 796.318 314.523 786.677 314.523H758.006ZM775.486 311.505H786.677C797.324 311.505 805.414 308.193 810.947 301.57C816.564 294.947 819.373 285.223 819.373 272.396C819.373 259.653 816.564 249.97 810.947 243.347C805.414 236.641 797.324 233.287 786.677 233.287H775.486V311.505Z" fill="#9C835C"/>
<path d="M843.846 230.269H894.021L895.278 252.15H894.021C892.679 247.455 891.045 243.725 889.116 240.958C887.272 238.192 884.883 236.222 881.949 235.048C879.098 233.874 875.535 233.287 871.26 233.287H861.325V267.617H869.499C873.523 267.617 876.709 266.737 879.056 264.977C881.404 263.216 883.29 260.156 884.715 255.797H886.098V283.336H884.715C883.122 278.725 881.152 275.456 878.805 273.528C876.541 271.6 873.439 270.635 869.499 270.635H861.325V311.505H872.266C877.715 311.505 882.2 310.708 885.721 309.115C889.242 307.522 892.134 304.924 894.398 301.319C896.745 297.63 898.757 292.684 900.434 286.48H901.943L898.925 314.523H843.846V313.265C845.69 312.93 846.948 312.175 847.618 311.002C848.373 309.828 848.75 308.026 848.75 305.594V239.198C848.75 236.766 848.373 234.964 847.618 233.79C846.948 232.617 845.69 231.862 843.846 231.527V230.269Z" fill="#9C835C"/>
<path d="M967.479 230.269V231.527L921.454 311.505H938.682C943.377 311.505 947.359 311.085 950.628 310.247C953.982 309.325 956.832 307.858 959.179 305.846C961.527 303.75 963.497 301.025 965.09 297.672C966.766 294.319 968.233 290.169 969.491 285.223H971L967.856 314.523H906.615V313.265L952.64 233.287H938.305C933.275 233.287 929.167 233.958 925.981 235.299C922.879 236.641 920.364 238.946 918.436 242.216C916.508 245.485 914.915 249.97 913.657 255.671H912.4L914.16 230.269H967.479Z" fill="#9C835C"/>
</svg>
