<svg width="610" height="582" viewBox="0 0 610 582" fill="none" xmlns="http://www.w3.org/2000/svg">
<g clip-path="url(#clip0_171_3992)">
<path d="M441.824 115.056L442.728 140.381C470.199 202.074 502.967 261.696 530.004 323.541C539.226 344.64 545.748 354.335 526.789 373.386C503.025 397.256 458.78 405.461 426.549 404.472C436.435 478.036 380.382 523.087 341.744 575.575C317.11 609.034 288.769 646.439 288.117 690C276.962 679.223 263.426 671.309 252.74 659.951C227.42 633.02 218.198 604.449 213.243 568.045C211.253 553.416 208.964 556.849 201.951 544.571C194.536 531.583 191.047 520.55 195.52 505.502L197.774 521.632C198.93 525.543 205.349 529.197 209.353 528.452L222.236 521.05C214.491 540.02 222.408 561.748 230.818 579.252C257.145 566.951 317.785 528.01 315.966 494.783C315.794 491.699 315.657 489.918 312.945 488.045C295.76 507.957 266.31 536.703 239.433 516.162C262.099 511.891 275.852 501.068 279.033 476.826C280.177 468.109 278.346 458.682 279.959 450.582C284.753 426.607 335.485 416.692 347.339 394.8C351.744 394.079 349.982 396.279 349.707 399.141C348.552 411.559 348.117 425.909 350.325 438.327C350.817 441.097 357.202 463.838 361.618 458.868L357.831 396.732L374.902 430.401L380.714 431.67C377.201 419.88 379.696 410.407 384.57 399.537L371.618 385.793C375.142 359.875 399.249 346.258 418.906 333.573L396.011 332.607C402.007 308.225 406.423 283.191 407.67 258.007C407.728 256.831 410.474 250.803 406.503 251.07C402.533 251.338 388.357 318.978 384.684 327.893C383.757 330.139 381.687 334.981 378.792 331.617L426.572 146.153C429.57 147.922 430.771 155.79 431.744 159.316C443.471 202.121 445.279 244.809 437.705 288.591C435.13 303.453 429.181 317.407 428.471 332.595C448.219 326.229 468.894 323.925 489.558 324.821L436.549 138.868L436.103 115.045H441.812L441.824 115.056ZM455.222 181.102L494.295 322.947L523.059 330.419L525.027 324.751L455.222 181.102Z" fill="#233D64"/>
<path d="M352.533 342.755C346.412 348.795 353.632 356.08 353.998 360.898C354.73 370.395 330.566 396.278 322.488 402.481C315.6 387.142 308.838 352.182 287.866 350.704C282.465 350.319 274.342 353.59 268.083 352.007L290.142 328.812C293.037 314.335 286.836 300.509 294.822 286.985C293.769 281.178 274.342 288.673 270.909 291.757C269.262 302.324 269.891 312.496 277.351 320.305L273.838 324.809C273.152 321.061 269.57 313.45 267.042 311.134C263.987 308.341 260.657 312.158 258.552 308.271L266.012 290.651C262.946 289.185 261.538 290.686 262.362 285.973L296.916 281.166C300.12 265.525 301.641 253.817 281.47 256.796C283.22 252.152 290.165 257.704 291.115 249.964C292.271 240.607 279.021 232.065 270.795 231.681C265.005 231.413 262.786 234.241 258.529 236.406C255.303 238.047 252.831 238.326 256.607 234.451C278.186 212.257 328.254 226.013 348.289 246.147C356.984 254.876 353.723 253.689 365.325 261.835C384.456 275.277 381 319.304 357.865 327.811L363.529 337.436L352.556 342.731L352.533 342.755Z" fill="#233D64"/>
<path d="M188.816 348.144L190.955 344.128L155.635 193.485L155.395 157.803L143.953 163.61C146.985 156.057 150.36 150.552 145.852 142.278C157.591 137.367 158.461 159.037 163.953 157.78C182.889 139.601 199.765 116.686 218.335 98.5303C237.625 79.665 253.769 67.9338 280.211 83.6917C300.165 61.5096 309.765 61.1023 336.195 72.0071L373.105 91.7453C350.6 86.1241 323.197 63.0575 298.724 71.4601C292.122 73.7296 284.136 86.578 280.097 87.6371C275.6 88.8125 264.067 80.34 247.934 85.8448C228.037 92.6298 184.559 141.987 167.877 159.84C161.756 166.392 157.088 165.787 159.25 179.159C166.939 187.585 223.518 123.168 230.909 117.07C238.186 111.064 246.47 103.965 256.618 105.373L233.69 119.898C214.17 136.121 194.479 166.31 172.729 178.321C161.951 184.28 157.534 177.169 159.731 195.173C179.468 255.214 213.426 309.866 238.209 368.01C243.655 389.947 198.735 403.634 182.866 406.183C160.086 409.837 125.818 407.777 104.251 399.211C97.7061 396.616 79.2165 387.981 83.6902 379.24C85.3149 376.075 112.935 359.7 117.82 357.501C121.573 355.813 142.523 348.144 144.903 348.144H188.827H188.816ZM226.047 355.906L175.452 247.183C171.196 250.046 173.404 251.14 173.884 254.539C178.118 284.541 190.772 317.954 196.436 348.178L226.047 355.906Z" fill="#233D64"/>
<path d="M413.185 101.451C412.247 102.266 391.893 90.8725 391.252 89.7901C388.597 85.356 385.748 67.4916 381.469 58.9492C370.6 37.2792 348.426 16.0397 323.907 12.6297C296.824 8.84737 309.902 21.3234 308.174 23.7441C284.742 25.2454 293.209 41.3292 287.168 58.7281L301.492 47.0901C303.3 47.5207 302.637 52.4203 302.156 53.5841C301.355 55.4811 276.023 72.6123 273.838 71.4834L254.742 53.875C265.108 43.7034 267.385 60.9975 275.703 62.6036L273.392 32.9265C271.31 27.1424 258.369 24.035 258.541 16.0048C275.326 15.7138 283.644 2.22531 301.515 0.479602C363.414 -5.56055 400.508 46.4267 413.208 101.44L413.185 101.451ZM287.168 31.53H277.602L279.525 58.7165C284.856 59.6708 282.717 57.5527 283.815 54.4569C286.401 47.1599 287.682 39.2809 287.156 31.5183L287.168 31.53Z" fill="#233D64"/>
<path d="M435.451 106.63C433.895 108.597 429.97 108.713 428.815 112.496C425.954 121.946 433.151 128.684 421.217 135.853L405.565 186.921L399.833 128.672L420.828 132.56L420.702 110.436C421.08 109.051 431.824 108.399 432.327 98.3786C432.579 93.2695 428.185 92.3966 428.471 87.8927C441.915 87.0315 442.865 97.2613 435.439 106.642L435.451 106.63Z" fill="#233D64"/>
<path d="M302.431 89.8368C293.461 97.6343 291.092 108.714 283.358 117.012C280.863 111.1 298.563 86.1126 302.431 89.8368Z" fill="#233D64"/>
</g>
<defs>
<clipPath id="clip0_171_3992">
<rect width="610" height="582" fill="white"/>
</clipPath>
</defs>
</svg>
